<?xml version="1.0" encoding="UTF-8" standalone="no"?>
<!-- Created with Inkscape (http://www.inkscape.org/) -->

<svg
   width="210mm"
   height="297mm"
   viewBox="0 0 210 297"
   version="1.1"
   id="svg1"
   xml:space="preserve"
   sodipodi:docname="logo.svg"
   xmlns:inkscape="http://www.inkscape.org/namespaces/inkscape"
   xmlns:sodipodi="http://sodipodi.sourceforge.net/DTD/sodipodi-0.dtd"
   xmlns="http://www.w3.org/2000/svg"
   xmlns:svg="http://www.w3.org/2000/svg"><sodipodi:namedview
     id="namedview1"
     pagecolor="#ffffff"
     bordercolor="#000000"
     borderopacity="0.25"
     inkscape:showpageshadow="2"
     inkscape:pageopacity="0.0"
     inkscape:pagecheckerboard="0"
     inkscape:deskcolor="#d1d1d1"
     inkscape:document-units="mm"
     inkscape:zoom="0.74742565"
     inkscape:cx="397.36394"
     inkscape:cy="494.36356"
     inkscape:window-width="1920"
     inkscape:window-height="1048"
     inkscape:window-x="0"
     inkscape:window-y="0"
     inkscape:window-maximized="1"
     inkscape:current-layer="layer1"><inkscape:page
       x="0"
       y="0"
       width="210"
       height="297"
       id="page2"
       margin="0"
       bleed="0" /></sodipodi:namedview><defs
     id="defs1"><linearGradient
       id="swatch8"
       inkscape:swatch="solid"><stop
         style="stop-color:#2dac0e;stop-opacity:1;"
         offset="0"
         id="stop8" /></linearGradient></defs><g
     inkscape:label="Camada 1"
     inkscape:groupmode="layer"
     id="layer1"><ellipse
       style="opacity:1;fill:#94c44e;fill-opacity:1;stroke:none;stroke-width:0.263;stroke-dasharray:none;paint-order:markers fill stroke"
       id="path5"
       cx="102.12694"
       cy="131.50835"
       rx="63.187725"
       ry="44.426102" /><ellipse
       style="opacity:1;mix-blend-mode:normal;fill:#d9eabe;fill-opacity:1;stroke:none;stroke-width:0.227639;stroke-dasharray:none;paint-order:markers fill stroke"
       id="path5-2"
       cx="101.17279"
       cy="131.35245"
       rx="54.691898"
       ry="38.452843" /><g
       id="g1"
       transform="translate(0.35399349,2.8319402)"><path
         style="fill:#94c44e"
         d="m 122.82749,154.72051 c 0.0827,-0.0216 0.21801,-0.0216 0.3007,0 0.0827,0.0216 0.015,0.0393 -0.15035,0.0393 -0.16538,0 -0.23304,-0.0177 -0.15035,-0.0393 z m 0.66582,-0.14504 c 0,-0.0178 0.0677,-0.0855 0.15035,-0.15034 0.13626,-0.10687 0.1393,-0.10383 0.0324,0.0324 -0.11223,0.14311 -0.18278,0.18862 -0.18278,0.11791 z m 8.77658,-0.82668 c 0,-0.11813 0.0195,-0.16645 0.0433,-0.10739 0.0238,0.0591 0.0238,0.15571 0,0.21478 -0.0238,0.0591 -0.0433,0.0107 -0.0433,-0.10739 z m -11.36044,-0.23626 -0.20827,-0.23626 0.23625,0.20828 c 0.12995,0.11455 0.23626,0.22087 0.23626,0.23626 0,0.0674 -0.0696,0.0125 -0.26424,-0.20828 z m -38.761222,-0.17118 c 0.342573,-0.0163 0.903148,-0.0163 1.245722,0 0.342573,0.0163 0.06229,0.0297 -0.622861,0.0297 -0.685147,0 -0.965435,-0.0133 -0.622861,-0.0297 z m -1.803148,-0.0829 c 0.106867,-0.0205 0.261509,-0.0198 0.343648,0.002 0.08214,0.0215 -0.0053,0.0383 -0.194304,0.0374 -0.189006,-9.5e-4 -0.25621,-0.0185 -0.149344,-0.0391 z m 4.339183,10e-4 c 0.08359,-0.0218 0.19957,-0.0204 0.257735,0.003 0.05817,0.0235 -0.01023,0.0413 -0.15198,0.0396 -0.141755,-0.002 -0.189345,-0.021 -0.105755,-0.0428 z m -5.326536,-0.0859 c 0.08359,-0.0218 0.199571,-0.0204 0.257736,0.003 0.05816,0.0235 -0.01023,0.0413 -0.151981,0.0396 -0.141754,-0.002 -0.189344,-0.021 -0.105755,-0.0428 z m 5.974609,8.5e-4 c 0.06202,-0.0248 0.136117,-0.0218 0.164665,0.007 0.02855,0.0285 -0.02219,0.0489 -0.11276,0.0451 -0.100082,-0.004 -0.12044,-0.0245 -0.05191,-0.0519 z m 24.565424,0.002 c 0.0591,-0.0238 0.15571,-0.0238 0.21478,0 0.0591,0.0238 0.0107,0.0433 -0.10739,0.0433 -0.11813,0 -0.16646,-0.0195 -0.10739,-0.0433 z m -31.35783,-0.0859 c 0.05906,-0.0238 0.155715,-0.0238 0.214779,0 0.05906,0.0238 0.01074,0.0433 -0.10739,0.0433 -0.118128,0 -0.166454,-0.0195 -0.107389,-0.0433 z m 32.05049,-0.002 c 0.062,-0.0248 0.13612,-0.0218 0.16467,0.007 0.0286,0.0286 -0.0222,0.0489 -0.11276,0.0451 -0.10008,-0.004 -0.12044,-0.0245 -0.0519,-0.0519 z m 9.71319,-0.0917 c -0.10686,-0.13626 -0.10382,-0.1393 0.0324,-0.0324 0.0827,0.0649 0.15035,0.13251 0.15035,0.15035 0,0.0707 -0.0705,0.0252 -0.18279,-0.11791 z m -42.450975,0.008 c 0.05906,-0.0238 0.155715,-0.0238 0.214779,0 0.05907,0.0238 0.01074,0.0433 -0.107389,0.0433 -0.118129,0 -0.166455,-0.0195 -0.10739,-0.0433 z m 33.339175,-0.002 c 0.062,-0.0248 0.13611,-0.0218 0.16466,0.007 0.0285,0.0285 -0.0222,0.0488 -0.11276,0.0451 -0.10008,-0.004 -0.12044,-0.0245 -0.0519,-0.0519 z m -33.935189,-0.0859 c 0.06202,-0.0248 0.136117,-0.0218 0.164665,0.007 0.02855,0.0285 -0.02219,0.0489 -0.11276,0.0451 -0.100082,-0.004 -0.12044,-0.0245 -0.05191,-0.0519 z m 34.536569,0 c 0.062,-0.0248 0.13612,-0.0218 0.16466,0.007 0.0286,0.0285 -0.0222,0.0489 -0.11276,0.0451 -0.10008,-0.004 -0.12043,-0.0245 -0.0519,-0.0519 z m -35.143321,-0.0841 c 0.05906,-0.0238 0.155715,-0.0238 0.214779,0 0.05907,0.0238 0.01074,0.0433 -0.10739,0.0433 -0.118128,0 -0.166454,-0.0195 -0.107389,-0.0433 z m -0.510102,-0.0877 c 0.06202,-0.0248 0.136117,-0.0218 0.164664,0.007 0.02855,0.0285 -0.02219,0.0489 -0.112759,0.0451 -0.100082,-0.004 -0.12044,-0.0245 -0.0519,-0.0519 z m 37.457573,-0.0859 c 0.062,-0.0248 0.13612,-0.0218 0.16466,0.007 0.0285,0.0285 -0.0222,0.0488 -0.11276,0.0451 -0.10008,-0.004 -0.12044,-0.0245 -0.0519,-0.0519 z m -38.402604,-0.0859 c 0.06202,-0.0248 0.136117,-0.0218 0.164665,0.007 0.02855,0.0285 -0.02219,0.0489 -0.112759,0.0451 -0.100083,-0.004 -0.12044,-0.0245 -0.05191,-0.0519 z m 39.003984,0 c 0.062,-0.0248 0.13612,-0.0218 0.16467,0.007 0.0285,0.0285 -0.0222,0.0489 -0.11276,0.0451 -0.10009,-0.004 -0.12044,-0.0245 -0.0519,-0.0519 z m -39.433543,-0.0859 c 0.06202,-0.0248 0.136117,-0.0218 0.164665,0.007 0.02855,0.0285 -0.02219,0.0488 -0.11276,0.0451 -0.100082,-0.004 -0.12044,-0.0245 -0.05191,-0.0519 z m 40.115473,0.002 c 0.0591,-0.0238 0.15571,-0.0238 0.21478,0 0.0591,0.0238 0.0107,0.0433 -0.10739,0.0433 -0.11813,0 -0.16646,-0.0195 -0.10739,-0.0433 z m -40.545032,-0.0877 c 0.06202,-0.0248 0.136116,-0.0218 0.164664,0.007 0.02855,0.0285 -0.02219,0.0489 -0.112759,0.0451 -0.100082,-0.004 -0.12044,-0.0245 -0.05191,-0.0519 z m 6.468495,-0.15609 c -0.36477,-0.85417 -0.491113,-2.52735 -0.363856,-4.81858 0.08421,-1.51613 0.327031,-3.52838 0.415149,-3.44026 0.02078,0.0208 -0.03227,0.55373 -0.117887,1.18435 -0.11789,0.86834 -0.155849,1.70947 -0.156424,3.46619 -7.27e-4,2.22133 0.0077,2.34195 0.199227,2.84644 0.109993,0.28975 0.185107,0.63769 0.166921,0.7732 l -0.03307,0.2464 z m 34.849737,0.15788 c 0.0591,-0.0238 0.15572,-0.0238 0.21478,0 0.0591,0.0238 0.0107,0.0433 -0.10739,0.0433 -0.11812,0 -0.16645,-0.0195 -0.10739,-0.0433 z m 0.94604,-0.0898 c 0.10686,-0.0206 0.2615,-0.0198 0.34364,0.002 0.0821,0.0215 -0.005,0.0383 -0.1943,0.0374 -0.18901,-9.5e-4 -0.25621,-0.0185 -0.14934,-0.0391 z m 2.23807,0.002 c 0.062,-0.0248 0.13612,-0.0218 0.16467,0.007 0.0285,0.0285 -0.0222,0.0489 -0.11276,0.0451 -0.10008,-0.004 -0.12044,-0.0245 -0.0519,-0.0519 z m 5.04099,-0.51193 c -0.33602,-0.79608 -0.42512,-1.34241 -0.41136,-2.52221 0.007,-0.63789 0.0514,-1.35311 0.0978,-1.58937 0.068,-0.34667 0.0737,-0.27207 0.0296,0.38661 -0.10825,1.6176 -0.0761,2.03816 0.2315,3.03329 0.28692,0.92808 0.31642,1.31706 0.0525,0.69168 z m -47.637163,-0.27665 c 0,-0.0596 0.05926,-0.28967 0.131679,-0.51118 0.07242,-0.22151 0.243018,-0.92466 0.3791,-1.56255 0.280502,-1.31488 0.347161,-1.34402 0.09787,-0.0428 -0.218896,1.14257 -0.443459,2.04295 -0.53457,2.14333 -0.04548,0.0501 -0.07408,0.0398 -0.07408,-0.0268 z m 11.350246,-0.76358 c -0.006,-0.4791 0.02424,-0.79468 0.07603,-0.79468 0.10225,0 0.10526,0.76066 0.0049,1.24572 -0.05861,0.28334 -0.07282,0.20418 -0.08096,-0.45104 z m 25.291167,0.23626 c 0.28055,-0.28351 0.52942,-0.51547 0.55304,-0.51547 0.0236,0 -0.18658,0.23196 -0.46713,0.51547 -0.28055,0.28351 -0.52942,0.51547 -0.55305,0.51547 -0.0236,0 0.18659,-0.23196 0.46714,-0.51547 z m 14.83584,0.30158 c -0.0925,-0.11764 -0.33008,-0.59742 -0.52788,-1.06617 -0.1978,-0.46876 -0.42452,-0.91074 -0.50381,-0.98219 -0.25299,-0.22795 -0.55127,-0.24681 -0.86274,-0.0545 -0.26194,0.16169 -0.28297,0.20411 -0.22445,0.45291 0.0919,0.39087 0.0748,0.66298 -0.049,0.77715 -0.0808,0.0745 -0.0933,0.0742 -0.051,-0.001 0.0309,-0.055 0.0209,-0.11302 -0.0221,-0.12887 -0.0852,-0.0314 -0.11999,-0.23616 -0.10454,-0.61533 0.0134,-0.32823 0.43745,-0.7457 0.75501,-0.74323 0.38982,0.003 0.95339,0.3058 1.14658,0.61598 0.13614,0.21857 0.16527,0.36737 0.12614,0.64428 -0.0483,0.342 -0.0312,0.37853 0.34023,0.72812 0.21511,0.20242 0.39111,0.41733 0.39111,0.47757 0,0.18227 -0.23462,0.12306 -0.41351,-0.10437 z m -43.825059,-0.11098 c 0.0033,-0.0812 0.03927,-0.22497 0.07987,-0.31947 0.059,-0.13731 0.07505,-0.14303 0.07987,-0.0285 0.0033,0.0788 0.02759,0.19948 0.05393,0.26812 0.02634,0.0687 -0.01232,0.14792 -0.08591,0.17616 -0.0901,0.0346 -0.131833,0.003 -0.127767,-0.0963 z m 41.816929,-0.0775 c 0.062,-0.0248 0.13612,-0.0218 0.16467,0.007 0.0285,0.0285 -0.0222,0.0489 -0.11276,0.0451 -0.10009,-0.004 -0.12044,-0.0245 -0.0519,-0.0519 z m 3.65236,-0.69475 c -0.15001,-0.31801 -0.62903,-1.11945 -1.06449,-1.78097 -1.16041,-1.76281 -1.58889,-2.54833 -1.89342,-3.47112 -0.14964,-0.45346 -0.57183,-1.57835 -0.93819,-2.49975 -0.91191,-2.29345 -1.03467,-2.71251 -0.94727,-3.2336 l 0.0701,-0.41766 0.0114,0.42956 c 0.0172,0.6481 0.22996,1.4361 0.59901,2.21816 0.18242,0.38657 0.57228,1.36007 0.86635,2.16335 0.71408,1.95055 1.56086,3.65459 2.36937,4.76811 0.66652,0.91795 0.99773,1.48873 1.20537,2.07724 0.18625,0.5279 0.0181,0.37478 -0.27816,-0.25332 z m -13.68794,0.0638 c 0,-0.23352 0.65373,-1.31579 1.38797,-2.29781 0.43268,-0.5787 0.79931,-1.03957 0.81472,-1.02416 0.0373,0.0374 -0.12446,0.53144 -0.32137,0.98129 -0.0874,0.19976 -0.40412,0.64435 -0.70374,0.98798 -0.29963,0.34363 -0.68715,0.81139 -0.86117,1.03945 -0.17403,0.22806 -0.31641,0.36903 -0.31641,0.31325 z m -31.425011,-0.55609 c 8.8e-4,-0.0945 0.03111,-0.2878 0.06718,-0.42956 0.05891,-0.23151 0.06575,-0.23588 0.06718,-0.0429 8.8e-4,0.11812 -0.02935,0.31143 -0.06718,0.42956 -0.0539,0.1683 -0.06844,0.17759 -0.06718,0.043 z m 29.534951,0.0964 c 0,-0.0178 0.0677,-0.0855 0.15035,-0.15034 0.13626,-0.10687 0.1393,-0.10383 0.0324,0.0324 -0.11223,0.14311 -0.18278,0.18862 -0.18278,0.11791 z M 87.496241,149.6302 c 0,-0.14454 0.03866,-0.26281 0.08591,-0.26281 0.04725,0 0.08591,0.0944 0.08591,0.20971 0,0.11534 -0.03866,0.23361 -0.08591,0.26281 -0.05012,0.031 -0.08591,-0.0564 -0.08591,-0.20971 z m 0.274484,-0.048 c 0.0018,-0.14175 0.02101,-0.18934 0.04279,-0.10575 0.02178,0.0836 0.02035,0.19957 -0.0032,0.25773 -0.02353,0.0582 -0.04136,-0.0102 -0.0396,-0.15198 z m -0.360396,-0.42956 c 0,-0.0709 0.03866,-0.12886 0.08591,-0.12886 0.04725,0 0.08591,0.058 0.08591,0.12886 0,0.0709 -0.03866,0.12887 -0.08591,0.12887 -0.04725,0 -0.08591,-0.058 -0.08591,-0.12887 z m -2.938501,-1.08237 c 0.02718,-0.77678 0.0047,-1.31893 -0.06696,-1.6178 -0.07464,-0.31113 -0.08034,-0.477 -0.01851,-0.53883 0.212145,-0.21215 0.311427,2.17215 0.12414,2.98127 -0.0562,0.24279 -0.06755,7.8e-4 -0.03867,-0.82464 z m 2.852589,0.78168 c 0,-0.0472 0.03866,-0.0859 0.08591,-0.0859 0.04725,0 0.08591,0.0387 0.08591,0.0859 0,0.0472 -0.03866,0.0859 -0.08591,0.0859 -0.04725,0 -0.08591,-0.0387 -0.08591,-0.0859 z m 0.35043,-0.0501 c 0.0041,-0.10008 0.02448,-0.12044 0.05191,-0.0519 0.02482,0.062 0.02177,0.13612 -0.0068,0.16467 -0.02855,0.0285 -0.04885,-0.0222 -0.04512,-0.11276 z M 87.238506,148.57 c 0,-0.0605 -0.294381,-0.6114 -0.654178,-1.22424 -1.49778,-2.55115 -1.899997,-3.65278 -2.084986,-5.71054 -0.05204,-0.57888 -0.202918,-1.33302 -0.421108,-2.10484 -0.381628,-1.34998 -0.480726,-2.00667 -0.369492,-2.44849 l 0.0757,-0.30069 0.0088,0.31267 c 0.0116,0.41258 0.234202,1.59888 0.441065,2.35059 0.09102,0.33076 0.282915,1.29727 0.426429,2.1478 0.421316,2.49691 0.680741,3.29534 1.468017,4.5181 0.762064,1.18361 1.410115,2.56963 1.201459,2.56963 -0.05044,0 -0.0917,-0.0495 -0.0917,-0.10999 z m 0.35043,-0.36969 c 0.0041,-0.10008 0.02448,-0.12044 0.0519,-0.0519 0.02482,0.062 0.02177,0.13612 -0.0068,0.16466 -0.02855,0.0285 -0.04885,-0.0222 -0.04512,-0.11276 z m -10.560377,-0.1217 c 0,-0.11813 0.0195,-0.16646 0.04333,-0.10739 0.02383,0.0591 0.02383,0.15571 0,0.21478 -0.02383,0.0591 -0.04333,0.0107 -0.04333,-0.10739 z m 47.237961,0.10121 c 0,-0.14334 0.27623,-0.87571 0.34673,-0.91928 0.0401,-0.0248 -0.006,0.1878 -0.10184,0.47241 -0.15999,0.47375 -0.24489,0.62868 -0.24489,0.44687 z m -47.152049,-0.53077 c 0,-0.11813 0.0195,-0.16646 0.04333,-0.10739 0.02383,0.0591 0.02383,0.15571 0,0.21478 -0.02383,0.0591 -0.04333,0.0107 -0.04333,-0.10739 z m 5.059683,-0.72194 c -0.08712,-0.16278 -0.0894,-0.29458 -0.01078,-0.62286 0.05484,-0.22902 0.132812,-0.57104 0.173263,-0.76004 0.05796,-0.2708 0.07538,-0.13877 0.08218,0.62286 0.0047,0.53158 -0.0235,0.96651 -0.06276,0.96651 -0.03927,0 -0.121119,-0.0929 -0.181893,-0.20647 z M 87.3312,146.6539 c 0.0041,-0.10008 0.02448,-0.12044 0.05191,-0.0519 0.02482,0.062 0.02177,0.13611 -0.0068,0.16466 -0.02855,0.0285 -0.04885,-0.0222 -0.04512,-0.11276 z m 30.75098,0.13084 c -7.2e-4,-0.0265 0.0966,-0.2971 0.21637,-0.60138 0.27346,-0.69498 0.66887,-2.06095 0.85647,-2.95877 0.22045,-1.05504 0.52862,-2.02774 1.08029,-3.40983 0.27706,-0.69411 0.54851,-1.4398 0.60322,-1.65709 0.0547,-0.21729 0.11881,-0.37574 0.14244,-0.35211 0.0848,0.0848 -0.17138,0.88534 -0.6306,1.97018 -0.53976,1.27509 -0.73844,1.93914 -1.28894,4.30796 -0.35105,1.51062 -0.56784,2.14895 -0.88989,2.62032 -0.0484,0.0709 -0.0886,0.1072 -0.0894,0.0807 z m 2.27867,-0.12368 c 0.17925,-0.53836 0.24215,-0.69528 0.3076,-0.76741 0.11185,-0.12328 -0.0581,0.40771 -0.22055,0.68926 -0.0793,0.13748 -0.11852,0.17265 -0.0871,0.0781 z m -43.882805,-1.20943 c -0.152558,-0.15373 0.05382,-2.33213 0.238262,-2.51492 0.03095,-0.0307 0.02928,0.0888 -0.0037,0.26539 -0.03299,0.17664 -0.08477,0.76965 -0.115052,1.31781 -0.03028,0.54815 -0.08406,0.96743 -0.119495,0.93172 z m 47.716125,-1.75453 c 0,-0.11813 0.0195,-0.16645 0.0433,-0.10739 0.0238,0.0591 0.0238,0.15572 0,0.21478 -0.0238,0.0591 -0.0433,0.0107 -0.0433,-0.10739 z M 80.88781,143.647 c 0.0041,-0.10009 0.02448,-0.12044 0.05191,-0.0519 0.02482,0.062 0.02177,0.13612 -0.0068,0.16466 -0.02855,0.0285 -0.04885,-0.0222 -0.04512,-0.11275 z m 43.41867,-0.59423 c 0.0428,-0.51639 0.23193,-1.40932 0.27294,-1.28868 0.0161,0.0473 -0.0468,0.45319 -0.13967,0.90208 -0.10952,0.52927 -0.15636,0.66517 -0.13327,0.3866 z m -41.063441,-0.34365 c 0.327498,-1.38534 0.211194,-1.98029 -0.814534,-4.16672 -0.825346,-1.7593 -0.973889,-2.4452 -1.116338,-5.15471 -0.121901,-2.31867 -0.235758,-3.34226 -0.479571,-4.31142 -0.212078,-0.84302 -0.280569,-1.5324 -0.126013,-1.26836 0.261711,0.4471 0.526458,2.50618 0.772654,6.00934 0.148685,2.11565 0.448552,3.26201 1.337141,5.11175 0.295086,0.61427 0.584336,1.32355 0.642777,1.57619 0.132919,0.57458 0.07134,1.67339 -0.116281,2.07507 -0.07725,0.16538 -0.122176,0.22337 -0.09983,0.12886 z m -4.407147,-0.42956 c 0.0018,-0.14175 0.02101,-0.18934 0.04279,-0.10575 0.02178,0.0836 0.02035,0.19957 -0.0032,0.25774 -0.02353,0.0582 -0.04135,-0.0102 -0.0396,-0.15199 z m 0.08798,-1.07389 c -0.0097,-0.44889 -0.06342,-1.11669 -0.11933,-1.48399 -0.07287,-0.47876 -0.07535,-0.69414 -0.0087,-0.76074 0.128474,-0.12847 0.214763,0.90858 0.176052,2.11586 l -0.0303,0.94503 z m 2.233259,0.11162 c -0.0101,-0.34025 -0.05987,-0.81219 -0.110606,-1.04874 -0.06176,-0.28798 -0.06398,-0.48061 -0.0067,-0.58292 0.077,-0.1376 0.09081,-0.13156 0.138652,0.0608 0.02922,0.11746 0.04051,0.65816 0.02509,1.20155 -0.01858,0.65448 -0.03424,0.77916 -0.04641,0.36936 z m 40.458139,-0.3264 c -0.003,-0.0472 0.0692,-0.37587 0.15992,-0.73025 0.10448,-0.40828 0.14656,-0.5042 0.11485,-0.26182 -0.0496,0.3789 -0.2652,1.15746 -0.27477,0.99207 z m -44.566911,-2.15544 c -0.10393,-0.41409 0.02926,-1.15148 0.275082,-1.52294 0.20753,-0.3136 0.23991,-0.3335 0.295978,-0.18194 0.121709,0.32901 -0.267301,1.9273 -0.469087,1.9273 -0.02538,0 -0.07127,-0.10009 -0.101973,-0.22242 z m -1.057522,-0.0854 c 0.0041,-0.10008 0.02448,-0.12044 0.0519,-0.0519 0.02482,0.062 0.02177,0.13612 -0.0068,0.16467 -0.02855,0.0285 -0.04885,-0.0222 -0.04512,-0.11276 z m 48.546983,-0.46536 c 0,-0.11813 0.0195,-0.16645 0.0433,-0.10739 0.0238,0.0591 0.0238,0.15572 0,0.21478 -0.0238,0.0591 -0.0433,0.0107 -0.0433,-0.10739 z m -2.70771,-0.53695 c -0.2224,-1.03344 -0.24697,-1.24653 -0.16133,-1.39955 0.0799,-0.14275 0.14225,0.16851 0.32342,1.61433 0.0761,0.60726 -0.01,0.49367 -0.16209,-0.21478 z m 2.78862,-0.1575 c 0.005,-0.2087 0.041,-0.4761 0.0807,-0.59422 0.0452,-0.13469 0.0538,-0.007 0.023,0.34364 -0.0575,0.65381 -0.116,0.79508 -0.10371,0.25058 z m -4.38329,-0.043 c 0.004,-0.10008 0.0245,-0.12044 0.0519,-0.0519 0.0248,0.062 0.0218,0.13611 -0.007,0.16466 -0.0285,0.0285 -0.0489,-0.0222 -0.0451,-0.11276 z m 5.24063,-0.0859 c 0.004,-0.10008 0.0245,-0.12044 0.0519,-0.0519 0.0248,0.062 0.0218,0.13611 -0.007,0.16466 -0.0286,0.0285 -0.0489,-0.0222 -0.0451,-0.11276 z m -49.227497,-0.17182 c 0.0041,-0.10009 0.02448,-0.12044 0.05191,-0.0519 0.02482,0.062 0.02176,0.13612 -0.0068,0.16467 -0.02855,0.0285 -0.04885,-0.0222 -0.04512,-0.11276 z m 44.079567,-0.29353 c 0,-0.11813 0.0195,-0.16646 0.0433,-0.10739 0.0238,0.0591 0.0238,0.15571 0,0.21477 -0.0238,0.0591 -0.0433,0.0107 -0.0433,-0.10738 z m -43.993655,-0.22194 c 0.0041,-0.10009 0.02448,-0.12044 0.05191,-0.0519 0.02482,0.062 0.02177,0.13612 -0.0068,0.16467 -0.02855,0.0285 -0.04885,-0.0222 -0.04512,-0.11276 z m 49.134795,-0.24006 c 0,-0.0178 0.0677,-0.0855 0.15035,-0.15035 0.13626,-0.10686 0.1393,-0.10382 0.0324,0.0324 -0.11224,0.14311 -0.18279,0.18862 -0.18279,0.11791 z m -49.048883,-0.27542 c 0.0041,-0.10008 0.02448,-0.12043 0.05191,-0.0519 0.02482,0.062 0.02176,0.13612 -0.0068,0.16466 -0.02855,0.0285 -0.04885,-0.0222 -0.04512,-0.11276 z m 2.727085,-0.50831 c 0.0735,-0.94112 0.07095,-2.08694 -0.0067,-2.98543 -0.03867,-0.44764 -0.03294,-0.75173 0.01415,-0.75173 0.207525,0 0.222561,3.35339 0.01849,4.12377 -0.05745,0.21686 -0.06469,0.10907 -0.02597,-0.38661 z m 41.281198,0 c 3.8e-4,-0.33076 0.0159,-0.45554 0.0345,-0.27729 0.0186,0.17824 0.0183,0.44887 -6.9e-4,0.60138 -0.019,0.15251 -0.0342,0.007 -0.0338,-0.32409 z m 6.02859,-0.12886 c 0.18456,-0.18901 0.35489,-0.34365 0.37852,-0.34365 0.0236,0 -0.10805,0.15464 -0.29261,0.34365 -0.18456,0.189 -0.35489,0.34364 -0.37852,0.34364 -0.0236,0 0.10805,-0.15464 0.29261,-0.34364 z m -49.950962,0.1217 c 0.0041,-0.10008 0.02448,-0.12044 0.05191,-0.0519 0.02482,0.062 0.02177,0.13612 -0.0068,0.16466 -0.02855,0.0285 -0.04885,-0.0222 -0.04512,-0.11276 z m 0.171824,-1.11685 c 0.0041,-0.10008 0.02448,-0.12044 0.05191,-0.0519 0.02482,0.062 0.02177,0.13612 -0.0068,0.16467 -0.02855,0.0285 -0.04885,-0.0222 -0.04512,-0.11276 z m 6.280319,-0.06 c -0.233165,-0.28095 -0.185131,-0.94984 0.05744,-0.79992 0.132319,0.0818 0.215477,0.61269 0.122102,0.77954 -0.06738,0.12041 -0.09402,0.12343 -0.179546,0.0204 z m -6.194407,-0.45544 c 0.0041,-0.10008 0.02448,-0.12044 0.0519,-0.0519 0.02482,0.062 0.02177,0.13612 -0.0068,0.16467 -0.02855,0.0285 -0.04885,-0.0222 -0.04512,-0.11276 z m 0.08591,-0.60138 c 0.0041,-0.10009 0.02448,-0.12044 0.05191,-0.0519 0.02482,0.062 0.02177,0.13612 -0.0068,0.16466 -0.02855,0.0285 -0.04885,-0.0222 -0.04512,-0.11275 z m 52.313536,-0.59423 c 0.1603,-0.16538 0.31078,-0.30069 0.3344,-0.30069 0.0236,0 -0.0882,0.13531 -0.24848,0.30069 -0.1603,0.16538 -0.31078,0.30069 -0.3344,0.30069 -0.0236,0 0.0882,-0.13531 0.24848,-0.30069 z m -52.227624,-0.007 c 0.0041,-0.10008 0.02448,-0.12044 0.0519,-0.0519 0.02482,0.062 0.02177,0.13611 -0.0068,0.16466 -0.02855,0.0285 -0.04885,-0.0222 -0.04512,-0.11276 z M 114.621,132.8963 c 0.15251,-0.019 0.42313,-0.0193 0.60138,-6.9e-4 0.17825,0.0186 0.0535,0.0341 -0.2773,0.0345 -0.33076,3.8e-4 -0.4766,-0.0148 -0.32408,-0.0338 z m 11.64297,-0.17045 c -0.22655,-0.0436 -0.23552,-0.16592 -0.0712,-0.97031 l 0.11406,-0.55843 -0.044,0.69744 -0.044,0.69743 0.33403,0.0884 c 0.22816,0.0604 0.26596,0.0875 0.11925,0.0856 -0.11813,-0.002 -0.30177,-0.0196 -0.40808,-0.0401 z m -49.242192,-0.41904 c 0.0041,-0.10008 0.02448,-0.12044 0.05191,-0.0519 0.02482,0.062 0.02176,0.13612 -0.0068,0.16467 -0.02855,0.0286 -0.04885,-0.0222 -0.04512,-0.11276 z m 41.391772,-0.0143 c -0.10686,-0.13626 -0.10382,-0.1393 0.0324,-0.0324 0.0827,0.0649 0.15035,0.13251 0.15035,0.15035 0,0.0707 -0.0705,0.0252 -0.18279,-0.11791 z m -5.67018,-0.0859 c -0.10686,-0.13626 -0.10382,-0.1393 0.0324,-0.0324 0.0827,0.0649 0.15034,0.13251 0.15034,0.15035 0,0.0707 -0.0706,0.0252 -0.18278,-0.11791 z m 17.10742,-0.0644 c 0.11098,-0.11812 0.2211,-0.21478 0.24473,-0.21478 0.0236,0 -0.0478,0.0967 -0.15882,0.21478 -0.11098,0.11813 -0.2211,0.21478 -0.24473,0.21478 -0.0236,0 0.0478,-0.0967 0.15882,-0.21478 z m -6.39065,-0.33515 c -0.15602,-0.32879 -0.1822,-0.65283 -0.0527,-0.65283 0.0473,0 0.0859,0.0881 0.0859,0.19566 0,0.19334 0.20536,0.56122 0.38162,0.68362 0.0513,0.0356 0.011,0.0637 -0.0926,0.0644 -0.12492,9e-4 -0.22778,-0.092 -0.32217,-0.29088 z m -5.98066,0.17385 c 0,-0.0178 0.0677,-0.0855 0.15035,-0.15035 0.13626,-0.10686 0.1393,-0.10382 0.0324,0.0324 -0.11223,0.14311 -0.18278,0.18862 -0.18278,0.11791 z M 77.107689,131.7055 c 0.0041,-0.10009 0.02448,-0.12044 0.05191,-0.0519 0.02482,0.062 0.02177,0.13612 -0.0068,0.16467 -0.02855,0.0285 -0.04885,-0.0222 -0.04512,-0.11276 z m 42.950141,-6.7e-4 c -0.28659,-0.12429 -1.11477,-0.86704 -1.11685,-1.00164 -5.5e-4,-0.0354 0.0377,-0.0644 0.0849,-0.0644 0.0473,0 0.0763,0.0303 0.0644,0.0674 -0.0294,0.0923 0.62477,0.754 0.71901,0.72725 0.0416,-0.0118 0.0757,0.011 0.0757,0.0507 0,0.0615 0.13351,0.11354 0.81617,0.31809 0.0473,0.0142 -0.0107,0.0273 -0.12887,0.0292 -0.11813,0.002 -0.34965,-0.0551 -0.51448,-0.12655 z m 10.22252,-0.0676 c 0,-0.0178 0.0677,-0.0855 0.15034,-0.15034 0.13627,-0.10687 0.1393,-0.10383 0.0324,0.0324 -0.11223,0.14311 -0.18278,0.18862 -0.18278,0.11791 z m -8.93484,-0.0859 c 0,-0.0178 0.0677,-0.0855 0.15035,-0.15034 0.13626,-0.10687 0.1393,-0.10383 0.0324,0.0324 -0.11224,0.14311 -0.18279,0.18862 -0.18279,0.11791 z m 9.27849,-0.34365 c 0,-0.0178 0.0677,-0.0855 0.15034,-0.15034 0.13626,-0.10687 0.1393,-0.10383 0.0324,0.0324 -0.11223,0.14311 -0.18278,0.18862 -0.18278,0.11791 z m -53.417249,-0.31121 c 0,-0.16538 0.01768,-0.23303 0.03929,-0.15034 0.02161,0.0827 0.02161,0.218 0,0.30069 -0.02161,0.0827 -0.03929,0.015 -0.03929,-0.15035 z m 46.780549,0.20084 c 0.0591,-0.0238 0.15572,-0.0238 0.21478,0 0.0591,0.0238 0.0107,0.0433 -0.10739,0.0433 -0.11812,0 -0.16645,-0.0195 -0.10739,-0.0433 z m 2.35467,-0.11493 c 0,-0.11812 0.0195,-0.16645 0.0433,-0.10739 0.0238,0.0591 0.0238,0.15572 0,0.21478 -0.0238,0.0591 -0.0433,0.0107 -0.0433,-0.10739 z m -5.2703,0.0272 c 0.062,-0.0248 0.13612,-0.0218 0.16467,0.007 0.0285,0.0285 -0.0222,0.0488 -0.11276,0.0451 -0.10009,-0.004 -0.12044,-0.0245 -0.0519,-0.0519 z m 9.89597,-0.23149 c 0,-0.0178 0.0677,-0.0855 0.15035,-0.15034 0.13626,-0.10686 0.1393,-0.10383 0.0324,0.0324 -0.11224,0.14311 -0.18279,0.18862 -0.18279,0.11791 z m 0.25774,-0.34364 c 0,-0.0178 0.0676,-0.0855 0.15034,-0.15035 0.13627,-0.10686 0.1393,-0.10382 0.0324,0.0324 -0.11223,0.1431 -0.18278,0.18861 -0.18278,0.11791 z m -44.611651,-0.2014 c 0.152514,-0.019 0.423136,-0.0193 0.601383,-6.9e-4 0.178248,0.0186 0.05346,0.0341 -0.277297,0.0345 -0.330761,3.8e-4 -0.476599,-0.0148 -0.324086,-0.0338 z m -6.756117,-0.27358 c -0.12828,-0.13733 -0.282935,-0.41556 -0.343677,-0.6183 -0.06074,-0.20274 -0.321471,-0.81526 -0.579398,-1.36117 -0.421006,-0.89106 -0.911611,-2.30833 -0.728364,-2.10412 0.03979,0.0443 0.333772,0.67987 0.653283,1.41226 0.319512,0.7324 0.760098,1.66025 0.979082,2.06189 0.495418,0.90864 0.475017,0.85912 0.353868,0.85912 -0.05586,0 -0.206515,-0.11236 -0.334794,-0.24968 z m 5.818373,0.19099 c 0.06202,-0.0248 0.136116,-0.0218 0.164664,0.007 0.02855,0.0285 -0.02219,0.0489 -0.112759,0.0451 -0.100083,-0.004 -0.12044,-0.0245 -0.05191,-0.0519 z m 2.405532,0 c 0.06202,-0.0248 0.136116,-0.0218 0.164664,0.007 0.02855,0.0285 -0.02219,0.0489 -0.112759,0.0451 -0.100083,-0.004 -0.12044,-0.0245 -0.05191,-0.0519 z M 77.114471,129.9512 c 0,-0.11813 0.0195,-0.16645 0.04333,-0.10739 0.02383,0.0591 0.02383,0.15572 0,0.21478 -0.02383,0.0591 -0.04333,0.0107 -0.04333,-0.10739 z m 8.046041,0.11314 c 0.06202,-0.0248 0.136117,-0.0218 0.164665,0.007 0.02855,0.0285 -0.02219,0.0488 -0.112759,0.0451 -0.100083,-0.004 -0.12044,-0.0245 -0.05191,-0.0519 z m 3.436475,0 c 0.06202,-0.0248 0.136117,-0.0218 0.164664,0.007 0.02855,0.0285 -0.02219,0.0488 -0.112759,0.0451 -0.100082,-0.004 -0.12044,-0.0245 -0.05191,-0.0519 z m 42.886123,0.0263 c 0,-0.0178 0.0677,-0.0855 0.15035,-0.15035 0.13626,-0.10686 0.1393,-0.10382 0.0324,0.0324 -0.11224,0.14311 -0.18279,0.18862 -0.18279,0.11791 z m 0.49558,-0.66933 c 0.0499,-0.0499 0.14148,-0.0739 0.20346,-0.0532 0.0643,0.0214 0.0254,0.0604 -0.0908,0.0908 -0.1429,0.0374 -0.17644,0.0262 -0.11269,-0.0376 z m -54.950131,-0.32918 c 0,-0.11813 0.0195,-0.16645 0.04333,-0.10739 0.02383,0.0591 0.02383,0.15572 0,0.21478 -0.02383,0.0591 -0.04333,0.0107 -0.04333,-0.10739 z m 53.063861,-0.1446 c 0.062,-0.0248 0.13611,-0.0218 0.16466,0.007 0.0285,0.0285 -0.0222,0.0488 -0.11276,0.0451 -0.10008,-0.004 -0.12044,-0.0245 -0.0519,-0.0519 z m -21.55873,-0.17757 c -0.10686,-0.13626 -0.10383,-0.1393 0.0324,-0.0324 0.0827,0.0649 0.15034,0.1325 0.15034,0.15034 0,0.0707 -0.0705,0.0252 -0.18278,-0.11791 z m -16.741856,-0.13982 c 0,-0.0178 0.06766,-0.0855 0.150346,-0.15035 0.136261,-0.10686 0.1393,-0.10382 0.03244,0.0324 -0.112233,0.14311 -0.182783,0.18862 -0.182783,0.11791 z M 76.942647,128.1471 c 0,-0.11813 0.0195,-0.16645 0.04333,-0.10739 0.02383,0.0591 0.02383,0.15572 0,0.21478 -0.02383,0.0591 -0.04333,0.0107 -0.04333,-0.10739 z m 60.881833,0.11314 c 0.062,-0.0248 0.13612,-0.0218 0.16467,0.007 0.0285,0.0286 -0.0222,0.0489 -0.11276,0.0451 -0.10008,-0.004 -0.12044,-0.0245 -0.0519,-0.0519 z m -45.259439,-0.40331 c 0,-0.0178 0.06766,-0.0855 0.150346,-0.15035 0.136261,-0.10686 0.1393,-0.10382 0.03244,0.0324 -0.112232,0.14311 -0.182782,0.18862 -0.182782,0.11791 z m 41.839079,-0.18234 c 0.11097,-0.11813 0.2211,-0.21478 0.24473,-0.21478 0.0236,0 -0.0478,0.0966 -0.15882,0.21478 -0.11098,0.11813 -0.22111,0.21478 -0.24473,0.21478 -0.0236,0 0.0478,-0.0966 0.15882,-0.21478 z m 2.05092,-0.0215 c -0.10686,-0.13626 -0.10382,-0.1393 0.0324,-0.0324 0.0827,0.0648 0.15035,0.13251 0.15035,0.15035 0,0.0707 -0.0705,0.0252 -0.18279,-0.11791 z m -28.99245,-0.3866 -0.16366,-0.19331 0.1933,0.16367 c 0.10631,0.09 0.1933,0.17699 0.1933,0.1933 0,0.0687 -0.0691,0.018 -0.22294,-0.16366 z m 27.90967,-0.0381 c 0.0836,-0.0218 0.19957,-0.0203 0.25774,0.003 0.0582,0.0235 -0.0102,0.0414 -0.15198,0.0396 -0.14176,-0.002 -0.18935,-0.021 -0.10576,-0.0428 z m -61.668915,-1.50836 -0.339605,-0.36512 0.365125,0.3396 c 0.339563,0.31583 0.404604,0.39065 0.339605,0.39065 -0.01404,0 -0.178342,-0.16431 -0.365125,-0.36513 z m 32.969335,0.14168 c -0.0609,-0.0661 -0.0729,-0.1202 -0.0266,-0.1202 0.0892,0 0.21836,0.16342 0.16741,0.21183 -0.0166,0.0157 -0.0799,-0.0255 -0.14086,-0.0916 z m -12.891308,-0.54976 c 0,-0.11813 0.0195,-0.16645 0.04333,-0.10739 0.02383,0.0591 0.02383,0.15572 0,0.21478 -0.02383,0.0591 -0.04333,0.0107 -0.04333,-0.10739 z m 47.674298,-0.0501 c 0.004,-0.10009 0.0245,-0.12044 0.0519,-0.0519 0.0248,0.062 0.0218,0.13612 -0.007,0.16467 -0.0285,0.0285 -0.0489,-0.0222 -0.0451,-0.11276 z m 0.24737,-0.83049 c 0.21065,-0.22444 0.39429,-0.40808 0.40808,-0.40808 0.0645,0 -0.004,0.0771 -0.38302,0.43315 l -0.40808,0.38302 z m -38.18828,-0.17182 -0.3396,-0.36512 0.36512,0.3396 c 0.33956,0.31583 0.40461,0.39065 0.33961,0.39065 -0.014,0 -0.17835,-0.16431 -0.36513,-0.36513 z m -9.74017,-0.28637 c 0.0041,-0.10008 0.02448,-0.12044 0.0519,-0.0519 0.02482,0.062 0.02177,0.13612 -0.0068,0.16467 -0.02855,0.0285 -0.04885,-0.0222 -0.04512,-0.11276 z m -0.0927,-0.69546 c 0,-0.0467 0.137841,-0.23634 0.306312,-0.4214 l 0.306312,-0.33648 -0.155966,0.28497 c -0.170687,0.31188 -0.456658,0.60802 -0.456658,0.47291 z m -25.020828,-0.0884 c 0.106867,-0.0206 0.261508,-0.0198 0.343648,0.002 0.08214,0.0215 -0.0053,0.0383 -0.194304,0.0374 -0.189006,-9.5e-4 -0.256211,-0.0185 -0.149344,-0.0391 z m 2.060883,1.4e-4 c 0.106316,-0.0205 0.280288,-0.0205 0.386604,0 0.106315,0.0205 0.01933,0.0372 -0.193302,0.0372 -0.212632,0 -0.299618,-0.0168 -0.193302,-0.0372 z m 1.671894,-0.0715 c -0.09153,-0.10377 -0.08779,-0.1256 0.02148,-0.1256 0.07274,0 0.132255,0.058 0.132255,0.12887 0,0.15667 -0.01291,0.1564 -0.153733,-0.003 z m -4.592897,-0.0107 c 0.05906,-0.0238 0.155715,-0.0238 0.214779,0 0.05907,0.0238 0.01074,0.0433 -0.107389,0.0433 -0.118129,0 -0.166455,-0.0195 -0.10739,-0.0433 z m 3.957315,-0.002 c 0.06202,-0.0248 0.136117,-0.0218 0.164664,0.007 0.02855,0.0285 -0.02219,0.0488 -0.112759,0.0451 -0.100082,-0.004 -0.12044,-0.0245 -0.05191,-0.0519 z m -4.467417,-0.0859 c 0.06202,-0.0248 0.136117,-0.0218 0.164665,0.007 0.02855,0.0286 -0.02219,0.0489 -0.11276,0.0451 -0.100082,-0.004 -0.12044,-0.0245 -0.0519,-0.0519 z m 11.345263,-0.23987 c -1.203468,-0.19635 -2.422282,-0.52689 -2.377292,-0.64472 0.01426,-0.0373 0.446136,-0.43425 0.959724,-0.88201 l 0.933796,-0.81411 0.612617,0.12631 c 0.904255,0.18645 3.240077,0.18265 4.220915,-0.007 2.156003,-0.41657 3.695819,-1.15901 4.982888,-2.40254 0.276083,-0.26675 1.262884,-0.93356 1.546414,-1.04496 0.819269,-0.3219 1.85289,-0.32027 3.242683,0.005 1.50261,0.35179 2.743625,0.28697 3.711525,-0.19386 1.068732,-0.53091 1.019283,-1.38923 -0.117227,-2.03478 l -0.366264,-0.20804 0.747739,-0.82633 c 0.411257,-0.45448 0.765416,-0.82633 0.78702,-0.82633 0.09043,0 0.868172,0.56328 1.173542,0.84994 0.734967,0.68994 1.155872,1.637 1.045946,2.35345 -0.211252,1.37684 -1.565002,2.62377 -3.39769,3.12959 -0.433655,0.11968 -0.87964,0.15337 -2.030569,0.15337 -0.811174,0 -1.501074,-0.0262 -1.533111,-0.0583 -0.10716,-0.10724 0.05578,-0.58627 0.346213,-1.01785 0.15816,-0.23503 0.254745,-0.42732 0.214634,-0.42732 -0.04011,0 -0.33716,0.28676 -0.660108,0.63724 l -0.587178,0.63724 -0.425308,-0.0794 c -0.951009,-0.17767 -1.796219,0.17271 -3.010966,1.24819 -1.068354,0.94587 -2.68844,1.6963 -4.682196,2.1688 -0.779174,0.18466 -1.153727,0.21825 -2.74918,0.24649 -1.319533,0.0234 -2.058882,-0.002 -2.588567,-0.0883 z m 23.729667,-0.69658 c 0.004,-0.10009 0.0245,-0.12044 0.0519,-0.0519 0.0248,0.062 0.0218,0.13612 -0.007,0.16467 -0.0285,0.0285 -0.0489,-0.0222 -0.0451,-0.11276 z m 40.55039,0 c 0.004,-0.10009 0.0245,-0.12044 0.0519,-0.0519 0.0248,0.062 0.0218,0.13612 -0.007,0.16467 -0.0285,0.0285 -0.0489,-0.0222 -0.0451,-0.11276 z m -67.963056,-0.38045 c -0.07088,-0.0464 -0.43815,-0.20812 -0.816162,-0.35947 l -0.687295,-0.27517 -2.706224,-0.006 c -2.521999,-0.006 -2.764708,-0.0196 -3.565342,-0.20674 -3.31167,-0.77393 -5.171211,-2.48969 -4.583531,-4.22912 0.472667,-1.399 2.631885,-2.63837 5.312401,-3.04925 2.247007,-0.34443 2.756283,-0.74284 3.190841,-2.49618 0.35322,-1.42516 0.827826,-2.13603 1.862319,-2.78937 1.501235,-0.94811 3.244967,-1.21996 5.396862,-0.84138 1.212189,0.21327 1.972169,0.18832 2.501764,-0.0821 0.200375,-0.10232 0.742187,-0.54304 1.204027,-0.97938 1.282509,-1.21171 2.299856,-1.81137 3.804138,-2.2423 1.207648,-0.34595 2.506077,-0.44525 3.734175,-0.28556 2.17025,0.28219 3.802222,1.04151 5.007365,2.32981 1.060811,1.13401 1.282903,1.94186 1.093156,3.97629 -0.07806,0.83696 0.101311,1.45269 0.571917,1.96324 0.192101,0.2084 0.385008,0.35683 0.428682,0.32984 0.08434,-0.0521 0.04965,0.15355 -0.146302,0.8674 -0.115324,0.42012 -0.577157,1.24572 -0.696848,1.24572 -0.03319,0 -0.294994,-0.15318 -0.581798,-0.3404 -1.002502,-0.65442 -1.557657,-1.43562 -1.818073,-2.55836 -0.115252,-0.49689 -0.120071,-0.72552 -0.0334,-1.58454 0.151448,-1.50107 0.04591,-1.91301 -0.677378,-2.64395 -1.004192,-1.01482 -3.181983,-1.60214 -5.113264,-1.37898 -1.750363,0.20225 -2.862826,0.74262 -4.176754,2.02882 -0.766509,0.75034 -1.550964,1.40861 -1.678622,1.40861 -0.03113,0 -0.178428,0.0555 -0.327323,0.12337 -0.816233,0.37197 -1.47869,0.38923 -3.113995,0.0811 -1.468063,-0.27661 -2.497688,-0.25481 -3.390717,0.0718 -1.069539,0.39115 -1.38354,0.79283 -1.711382,2.18926 -0.254842,1.08549 -0.596914,1.76006 -1.184799,2.33645 -0.835752,0.81942 -1.620111,1.13581 -3.541826,1.42868 -3.852231,0.58709 -4.505257,1.92696 -1.37459,2.82036 1.215414,0.34685 2.490332,0.44317 3.994901,0.30184 2.179516,-0.20474 2.556856,-0.14337 4.555196,0.74094 0.606573,0.26842 1.374469,0.55481 1.706435,0.63641 l 0.603577,0.14836 -0.898204,0.48098 c -0.86479,0.46308 -1.849524,0.92728 -1.961314,0.92454 -0.02956,-7.2e-4 -0.111734,-0.0392 -0.182612,-0.0856 z m 21.11821,-0.1436 c 0.06202,-0.0248 0.136117,-0.0218 0.164664,0.007 0.02855,0.0285 -0.02219,0.0489 -0.112759,0.0451 -0.100082,-0.004 -0.12044,-0.0245 -0.0519,-0.0519 z m 46.844846,-0.5069 c 0.004,-0.10008 0.0245,-0.12044 0.0519,-0.0519 0.0248,0.062 0.0218,0.13612 -0.007,0.16466 -0.0285,0.0286 -0.0489,-0.0222 -0.0451,-0.11276 z m -81.154569,-0.57274 -0.339605,-0.36513 0.365125,0.33961 c 0.339564,0.31583 0.404605,0.39064 0.339606,0.39064 -0.01404,0 -0.178343,-0.1643 -0.365126,-0.36512 z m 40.604179,0.14318 c 0.004,-0.10008 0.0245,-0.12043 0.0519,-0.0519 0.0248,0.062 0.0218,0.13612 -0.007,0.16466 -0.0285,0.0285 -0.0489,-0.0222 -0.0451,-0.11276 z m -2.32641,-1.02378 c 0.25666,-0.25988 0.48598,-0.47251 0.5096,-0.47251 0.0236,0 -0.16703,0.21263 -0.42369,0.47251 -0.256645,0.25989 -0.485966,0.47252 -0.509592,0.47252 -0.02363,0 0.167035,-0.21263 0.423682,-0.47252 z m 42.08586,-0.36512 c -0.10687,-0.13626 -0.10383,-0.1393 0.0324,-0.0324 0.14311,0.11223 0.18862,0.18278 0.11791,0.18278 -0.0178,0 -0.0855,-0.0677 -0.15034,-0.15034 z m -81.598526,-1.01663 c 0.0041,-0.10008 0.02448,-0.12044 0.0519,-0.0519 0.02482,0.062 0.02177,0.13611 -0.0068,0.16466 -0.02855,0.0285 -0.04885,-0.0222 -0.04512,-0.11276 z m 43.464616,-0.24005 c 0,-0.0178 0.0677,-0.0855 0.15034,-0.15035 0.13627,-0.10686 0.1393,-0.10382 0.0324,0.0324 -0.11223,0.1431 -0.18278,0.18861 -0.18278,0.11791 z m -43.464616,-0.79089 c 0.0041,-0.10008 0.02448,-0.12044 0.0519,-0.0519 0.02482,0.062 0.02177,0.13611 -0.0068,0.16466 -0.02855,0.0285 -0.04885,-0.0222 -0.04512,-0.11276 z m 40.894046,-0.0859 c 0.004,-0.10008 0.0245,-0.12044 0.0519,-0.0519 0.0248,0.062 0.0218,0.13612 -0.007,0.16467 -0.0285,0.0285 -0.0489,-0.0222 -0.0451,-0.11276 z m 5.68487,-0.43867 c 0.0827,-0.0216 0.21801,-0.0216 0.3007,0 0.0827,0.0216 0.015,0.0393 -0.15035,0.0393 -0.16538,0 -0.23304,-0.0177 -0.15035,-0.0393 z m 0.90308,-0.002 c 0.10687,-0.0206 0.26151,-0.0198 0.34365,0.002 0.0821,0.0215 -0.005,0.0383 -0.19431,0.0374 -0.189,-9.5e-4 -0.25621,-0.0186 -0.14934,-0.0391 z m 0.62864,-0.0753 c 0.004,-0.10009 0.0245,-0.12044 0.0519,-0.0519 0.0248,0.062 0.0218,0.13612 -0.007,0.16467 -0.0285,0.0285 -0.0489,-0.0222 -0.0451,-0.11276 z m 31.61557,-0.34365 c 0.004,-0.10008 0.0245,-0.12044 0.0519,-0.0519 0.0248,0.062 0.0218,0.13612 -0.007,0.16467 -0.0286,0.0285 -0.0489,-0.0222 -0.0451,-0.11276 z m -31.53644,-0.24342 c 0,-0.0669 -0.0483,-0.14121 -0.10739,-0.16504 -0.0642,-0.0259 -0.0469,-0.0461 0.043,-0.0501 0.0953,-0.004 0.15034,0.0561 0.15034,0.16504 0,0.0945 -0.0193,0.17182 -0.043,0.17182 -0.0236,0 -0.043,-0.0548 -0.043,-0.12171 z m -46.911461,-1.10253 c 0.356016,-0.37932 0.43315,-0.44753 0.43315,-0.38302 0,0.0138 -0.183637,0.19743 -0.408082,0.40809 l -0.408081,0.38301 z m 78.447901,0.2291 c 0.004,-0.10009 0.0245,-0.12044 0.0519,-0.0519 0.0248,0.062 0.0218,0.13612 -0.007,0.16466 -0.0286,0.0286 -0.0489,-0.0222 -0.0451,-0.11275 z m -18.306,-0.53975 c 0,-0.0413 0.0995,-0.25313 0.22113,-0.47074 0.1268,-0.22687 0.19982,-0.46281 0.17116,-0.55309 -0.0678,-0.21361 -1.50781,-1.15467 -2.25045,-1.47069 -1.04575,-0.44501 -1.94182,-0.63603 -3.01734,-0.64321 -0.53158,-0.004 -0.96651,-0.0128 -0.96651,-0.0207 0,-0.008 0.14498,-0.10066 0.32217,-0.20633 1.02312,-0.61015 2.73216,-0.56249 4.00072,0.11155 0.61907,0.32894 1.6426,1.26438 1.86898,1.70812 0.19445,0.38115 0.46933,0.44108 0.72538,0.15815 0.24666,-0.27256 1.05888,-0.67993 1.72004,-0.8627 1.00927,-0.27901 1.83053,-0.23084 2.97937,0.17474 0.90761,0.32041 0.80648,0.38709 -0.60951,0.40186 -1.94251,0.0203 -3.07381,0.363 -4.565,1.38296 -0.57217,0.39136 -0.60014,0.40488 -0.60014,0.29004 z m -59.536923,-0.21508 c 0,-0.0178 0.06766,-0.0855 0.150346,-0.15035 0.136261,-0.10686 0.1393,-0.10382 0.03244,0.0324 -0.112233,0.14311 -0.182783,0.18862 -0.182783,0.11791 z m 37.962083,-0.80521 c -0.10686,-0.13626 -0.10382,-0.1393 0.0324,-0.0324 0.14311,0.11223 0.18862,0.18278 0.11791,0.18278 -0.0178,0 -0.0855,-0.0677 -0.15035,-0.15035 z m 38.79476,-0.55842 -0.25233,-0.27922 0.27921,0.25233 c 0.15357,0.13879 0.27922,0.26443 0.27922,0.27922 0,0.0664 -0.0709,0.008 -0.3061,-0.25233 z m -52.78134,-0.0284 c -1.067381,-0.29608 -2.105836,-0.32042 -3.872127,-0.0908 -0.286426,0.0372 -0.219641,0.003 0.257736,-0.13062 0.957051,-0.26867 2.934218,-0.27009 3.613437,-0.003 0.387198,0.1525 0.938891,0.4632 0.768068,0.43257 -0.02363,-0.004 -0.368827,-0.0981 -0.767114,-0.20858 z m 13.345039,-0.0575 -0.163661,-0.1933 0.193302,0.16366 c 0.181655,0.1538 0.232412,0.22295 0.163661,0.22295 -0.0163,0 -0.103289,-0.087 -0.193302,-0.19331 z m -32.525586,-0.55268 c 0.06202,-0.0248 0.136117,-0.0218 0.164665,0.007 0.02855,0.0285 -0.02219,0.0489 -0.11276,0.0451 -0.100082,-0.004 -0.120439,-0.0245 -0.05191,-0.0519 z m 0.601383,-0.0859 c 0.06202,-0.0248 0.136117,-0.0218 0.164665,0.007 0.02855,0.0285 -0.02219,0.0489 -0.11276,0.0451 -0.100082,-0.004 -0.120439,-0.0245 -0.05191,-0.0519 z m 0.724882,-0.0864 c 0.08269,-0.0216 0.218001,-0.0216 0.300691,0 0.08269,0.0216 0.01503,0.0393 -0.150346,0.0393 -0.16538,0 -0.233035,-0.0177 -0.150345,-0.0393 z m 0.77166,-0.7999 c 0,-0.16538 0.01768,-0.23304 0.03929,-0.15035 0.02161,0.0827 0.02161,0.218 0,0.30069 -0.02161,0.0827 -0.03929,0.015 -0.03929,-0.15034 z m 57.111452,0.21307 c 0,-0.0246 0.0912,-0.18887 0.20266,-0.36512 0.32168,-0.5087 0.99905,-1.12513 1.55854,-1.41834 0.4707,-0.24668 0.58635,-0.27043 1.33163,-0.27343 0.62435,-0.003 0.88179,0.0326 1.09538,0.14927 0.15357,0.0839 0.27921,0.19021 0.27921,0.23625 0,0.046 -0.25538,0.0837 -0.5675,0.0837 -1.07449,0 -2.20225,0.41796 -3.23279,1.19809 -0.55322,0.41881 -0.66713,0.48532 -0.66713,0.38957 z m -21.90074,-0.17728 c 0.004,-0.10008 0.0245,-0.12043 0.0519,-0.0519 0.0248,0.062 0.0218,0.13612 -0.007,0.16466 -0.0285,0.0286 -0.0489,-0.0222 -0.0451,-0.11276 z m 35.14474,-0.63717 c 0,-0.11813 0.0195,-0.16646 0.0433,-0.10739 0.0238,0.0591 0.0238,0.15571 0,0.21478 -0.0238,0.0591 -0.0433,0.0107 -0.0433,-0.10739 z m -42.275422,-0.56559 c 0.0041,-0.10008 0.02448,-0.12044 0.05191,-0.0519 0.02482,0.062 0.02177,0.13612 -0.0068,0.16467 -0.02855,0.0285 -0.04885,-0.0222 -0.04512,-0.11276 z m 42.268632,-0.51547 c 0.004,-0.10008 0.0245,-0.12044 0.0519,-0.0519 0.0248,0.062 0.0218,0.13612 -0.007,0.16467 -0.0285,0.0285 -0.0489,-0.0222 -0.0451,-0.11276 z m -42.164931,-0.4224 c 6.45e-4,-0.23626 0.01733,-0.32271 0.03708,-0.19212 0.01975,0.13059 0.01922,0.32389 -0.0012,0.42956 -0.02039,0.10566 -0.03655,-0.001 -0.0359,-0.23744 z m 8.391201,-0.92356 c 0.21066,-0.22444 0.39429,-0.40808 0.40808,-0.40808 0.0645,0 -0.004,0.0771 -0.38301,0.43315 l -0.40808,0.38302 z m -35.435053,0.10739 c 0.08552,-0.0945 0.174828,-0.17182 0.198454,-0.17182 0.02363,0 -0.02702,0.0773 -0.112543,0.17182 -0.08552,0.0945 -0.174828,0.17183 -0.198454,0.17183 -0.02363,0 0.02702,-0.0773 0.112543,-0.17183 z m 26.940151,-0.0501 c 0.0041,-0.10008 0.02448,-0.12044 0.05191,-0.0519 0.02482,0.062 0.02177,0.13612 -0.0068,0.16467 -0.02855,0.0285 -0.04885,-0.0222 -0.04512,-0.11276 z M 71.04412,107.87185 c 0.08552,-0.0945 0.174828,-0.17182 0.198454,-0.17182 0.02363,0 -0.02702,0.0773 -0.112543,0.17182 -0.08552,0.0945 -0.174828,0.17183 -0.198454,0.17183 -0.02363,0 0.02702,-0.0773 0.112543,-0.17183 z m 67.39135,-0.5799 -0.20827,-0.23626 0.23625,0.20828 c 0.12995,0.11455 0.23626,0.22086 0.23626,0.23625 0,0.0674 -0.0696,0.0125 -0.26424,-0.20827 z m -29.47737,-0.50973 c 0.062,-0.0248 0.13611,-0.0218 0.16466,0.007 0.0285,0.0285 -0.0222,0.0489 -0.11276,0.0451 -0.10008,-0.004 -0.12044,-0.0245 -0.0519,-0.0519 z m 1.80415,0 c 0.062,-0.0248 0.13611,-0.0218 0.16466,0.007 0.0285,0.0285 -0.0222,0.0489 -0.11276,0.0451 -0.10008,-0.004 -0.12044,-0.0245 -0.0519,-0.0519 z m -1.03631,-0.0878 c 0.10631,-0.0205 0.28028,-0.0205 0.3866,0 0.10631,0.0205 0.0193,0.0372 -0.1933,0.0372 -0.21263,0 -0.29962,-0.0168 -0.1933,-0.0372 z m -35.218498,-0.51353 c 0.06202,-0.0248 0.136116,-0.0218 0.164664,0.007 0.02855,0.0286 -0.02219,0.0489 -0.112759,0.0451 -0.100083,-0.004 -0.12044,-0.0245 -0.05191,-0.0519 z m 4.037857,0 c 0.06202,-0.0248 0.136117,-0.0218 0.164664,0.007 0.02855,0.0286 -0.02219,0.0489 -0.112759,0.0451 -0.100082,-0.004 -0.12044,-0.0245 -0.05191,-0.0519 z m -3.608298,-0.0859 c 0.06202,-0.0248 0.136116,-0.0218 0.164664,0.007 0.02855,0.0286 -0.02219,0.0489 -0.112759,0.0451 -0.100082,-0.004 -0.12044,-0.0245 -0.05191,-0.0519 z m 0.596013,-0.0841 c 0.05907,-0.0238 0.155716,-0.0238 0.21478,0 0.05906,0.0238 0.01074,0.0433 -0.10739,0.0433 -0.118129,0 -0.166454,-0.0195 -0.10739,-0.0433 z m 1.848741,-0.003 c 0.08359,-0.0218 0.19957,-0.0204 0.257735,0.003 0.05817,0.0235 -0.01023,0.0414 -0.151981,0.0396 -0.141754,-0.002 -0.189344,-0.021 -0.105754,-0.0428 z m 35.379355,-0.0765 c 0.004,-0.10009 0.0245,-0.12044 0.0519,-0.0519 0.0248,0.062 0.0218,0.13612 -0.007,0.16466 -0.0285,0.0285 -0.0489,-0.0222 -0.0451,-0.11275 z m 23.0874,-0.009 c 0.062,-0.0248 0.13612,-0.0218 0.16467,0.007 0.0285,0.0285 -0.0222,0.0489 -0.11276,0.0451 -0.10009,-0.004 -0.12044,-0.0245 -0.0519,-0.0519 z m -0.60675,-0.0841 c 0.0591,-0.0238 0.15571,-0.0238 0.21478,0 0.0591,0.0238 0.0107,0.0433 -0.10739,0.0433 -0.11813,0 -0.16646,-0.0195 -0.10739,-0.0433 z m -39.588517,-0.60892 -0.296066,-0.32217 0.322169,0.29607 c 0.177193,0.16284 0.32217,0.30781 0.32217,0.32217 0,0.0656 -0.0727,0.004 -0.348273,-0.29607 z m 17.043367,-0.23626 c 3.8e-4,-0.33076 0.0159,-0.45554 0.0345,-0.27729 0.0186,0.17824 0.0183,0.44887 -7e-4,0.60138 -0.019,0.15251 -0.0342,0.007 -0.0338,-0.32409 z m -31.600803,0.21478 c 0.08553,-0.0945 0.174829,-0.17182 0.198455,-0.17182 0.02363,0 -0.02702,0.0773 -0.112543,0.17182 -0.08552,0.0945 -0.174828,0.17183 -0.198454,0.17183 -0.02363,0 0.02702,-0.0773 0.112542,-0.17183 z m 53.830563,-0.47967 c 0.004,-0.10008 0.0245,-0.12044 0.0519,-0.0519 0.0248,0.062 0.0218,0.13612 -0.007,0.16467 -0.0285,0.0286 -0.0488,-0.0222 -0.0451,-0.11276 z m -39.966755,-0.10023 c -0.106864,-0.13626 -0.103825,-0.1393 0.03244,-0.0324 0.143108,0.11223 0.188618,0.18278 0.117909,0.18278 -0.01784,0 -0.08549,-0.0677 -0.150345,-0.15034 z m -9.025896,-1.88432 c 0.06202,-0.0248 0.136117,-0.0218 0.164665,0.007 0.02855,0.0285 -0.02219,0.0489 -0.11276,0.0451 -0.100082,-0.004 -0.120439,-0.0245 -0.05191,-0.0519 z m 4.811065,0 c 0.06202,-0.0248 0.136116,-0.0218 0.164664,0.007 0.02855,0.0285 -0.02219,0.0489 -0.112759,0.0451 -0.100083,-0.004 -0.12044,-0.0245 -0.05191,-0.0519 z m 34.192916,0 c 0.062,-0.0248 0.13612,-0.0218 0.16467,0.007 0.0286,0.0285 -0.0222,0.0489 -0.11276,0.0451 -0.10008,-0.004 -0.12044,-0.0245 -0.0519,-0.0519 z m -38.48851,-0.0859 c 0.06202,-0.0248 0.136117,-0.0218 0.164665,0.007 0.02855,0.0286 -0.02219,0.0489 -0.11276,0.0451 -0.100082,-0.004 -0.120439,-0.0245 -0.05191,-0.0519 z m 39.53339,-0.005 c 0.4445,-0.0208 0.69572,-0.075 0.81616,-0.17623 0.17303,-0.14538 0.17309,-0.14512 0.0103,0.0471 -0.14606,0.17251 -0.23383,0.19146 -0.81616,0.17623 l -0.6525,-0.0171 z m -38.978697,-0.0813 c 0.08359,-0.0218 0.199571,-0.0204 0.257736,0.003 0.05817,0.0235 -0.01023,0.0414 -0.151981,0.0396 -0.141755,-0.002 -0.189344,-0.021 -0.105755,-0.0428 z m 2.577356,0 c 0.08359,-0.0218 0.19957,-0.0204 0.257736,0.003 0.05816,0.0235 -0.01023,0.0414 -0.151981,0.0396 -0.141755,-0.002 -0.189345,-0.021 -0.105755,-0.0428 z m -1.333269,-0.0833 c 0.05906,-0.0238 0.155715,-0.0238 0.21478,0 0.05906,0.0238 0.01074,0.0433 -0.10739,0.0433 -0.118129,0 -0.166454,-0.0195 -0.10739,-0.0433 z m 25.75208,-0.54449 c 0.23271,-0.23625 0.44243,-0.42956 0.46606,-0.42956 0.0236,0 -0.14744,0.19331 -0.38015,0.42956 -0.2327,0.23626 -0.44243,0.42956 -0.46605,0.42956 -0.0236,0 0.14744,-0.1933 0.38014,-0.42956 z m 19.44808,0.27922 c -0.10686,-0.13626 -0.10383,-0.1393 0.0324,-0.0324 0.1431,0.11223 0.18861,0.18278 0.1179,0.18278 -0.0178,0 -0.0855,-0.0677 -0.15034,-0.15034 z m -11.34037,-0.0859 c -0.10686,-0.13626 -0.10382,-0.1393 0.0324,-0.0324 0.0827,0.0649 0.15035,0.1325 0.15035,0.15034 0,0.0707 -0.0705,0.0252 -0.18279,-0.11791 z m 5.74415,-0.37578 c 0.0583,-0.0587 0.1276,-0.0851 0.15405,-0.0587 0.0265,0.0265 -0.0212,0.0745 -0.10596,0.10675 -0.12244,0.0466 -0.13231,0.0368 -0.0481,-0.0481 z m -6.34553,-0.2256 c -0.10686,-0.13626 -0.10382,-0.1393 0.0324,-0.0324 0.0827,0.0648 0.15034,0.1325 0.15034,0.15034 0,0.0707 -0.0705,0.0252 -0.18278,-0.11791 z m 7.64101,-0.25199 c 0.062,-0.0248 0.13611,-0.0218 0.16466,0.007 0.0285,0.0286 -0.0222,0.0489 -0.11276,0.0451 -0.10008,-0.004 -0.12044,-0.0245 -0.0519,-0.0519 z m 0.46878,-0.0868 c 0.0836,-0.0218 0.19957,-0.0204 0.25773,0.003 0.0582,0.0235 -0.0102,0.0414 -0.15198,0.0396 -0.14175,-0.002 -0.18934,-0.021 -0.10575,-0.0428 z m 1.24408,0.003 c 0.0591,-0.0238 0.15572,-0.0238 0.21478,0 0.0591,0.0238 0.0107,0.0433 -0.10739,0.0433 -0.11813,0 -0.16645,-0.0195 -0.10739,-0.0433 z m -14.08417,-0.775 c 0.062,-0.0248 0.13611,-0.0218 0.16466,0.007 0.0285,0.0285 -0.0222,0.0489 -0.11276,0.0451 -0.10008,-0.004 -0.12044,-0.0245 -0.0519,-0.0519 z m 2.40553,0 c 0.062,-0.0248 0.13612,-0.0218 0.16466,0.007 0.0285,0.0285 -0.0222,0.0489 -0.11276,0.0451 -0.10008,-0.004 -0.12043,-0.0245 -0.0519,-0.0519 z m -1.89543,-0.0841 c 0.0591,-0.0238 0.15571,-0.0238 0.21478,0 0.0591,0.0238 0.0107,0.0433 -0.10739,0.0433 -0.11813,0 -0.16646,-0.0195 -0.10739,-0.0433 z m 1.37459,0 c 0.0591,-0.0238 0.15571,-0.0238 0.21478,0 0.0591,0.0238 0.0107,0.0433 -0.10739,0.0433 -0.11813,0 -0.16646,-0.0195 -0.10739,-0.0433 z"
         id="path4" /><path
         style="fill:#6ac117"
         d="m 112.48563,131.94865 c -0.10686,-0.13626 -0.10382,-0.1393 0.0324,-0.0324 0.14311,0.11223 0.18862,0.18278 0.11791,0.18278 -0.0178,0 -0.0855,-0.0677 -0.15035,-0.15035 z m -0.54746,-1.30918 c -1.84922,-0.26184 -3.41401,-1.45728 -3.97556,-3.03717 -0.0699,-0.19653 -0.15111,-0.68203 -0.18057,-1.0789 l -0.0536,-0.72158 -0.61812,-0.0266 c -3.09612,-0.1331 -5.31583,-2.7275 -4.61982,-5.39965 0.33213,-1.27513 1.306,-2.4379 2.55317,-3.04841 0.99214,-0.48567 1.56382,-0.6164 2.70625,-0.61887 0.94947,-0.002 0.96651,-0.006 0.96651,-0.19886 0,-0.10822 0.0225,-0.30919 0.05,-0.4466 0.0491,-0.24549 0.041,-0.2517 -0.46704,-0.35663 -0.28435,-0.0587 -0.83499,-0.26594 -1.22364,-0.46047 -1.9381,-0.97005 -2.86932,-2.93479 -2.32366,-4.90261 0.2164,-0.7804 0.63125,-1.43763 1.31668,-2.08599 1.65306,-1.56365 4.21716,-1.9478 6.30339,-0.94436 0.60335,0.2902 0.64887,0.2994 0.84511,0.17082 l 0.20741,-0.1359 -0.19947,-0.3608 c -0.36123,-0.65336 -0.49314,-1.29231 -0.45628,-2.21001 0.0312,-0.77801 0.0593,-0.88947 0.39376,-1.56443 1.35688,-2.73831 5.20675,-3.736434 7.84206,-2.03315 0.72678,0.46974 1.32543,1.11982 1.64848,1.79009 0.14947,0.31014 0.27969,0.57603 0.28938,0.59087 0.01,0.0149 0.29206,-0.11121 0.62749,-0.28013 0.76566,-0.38558 1.49626,-0.56012 2.35143,-0.56175 0.65616,-10e-4 0.67436,-0.007 1.11685,-0.3664 2.99631,-2.432123 7.84522,-0.72125 7.91159,2.7915 l 0.0126,0.66517 0.30069,0.0496 c 0.93721,0.15461 1.27782,0.25681 1.91533,0.57468 1.68963,0.84247 2.69977,2.54546 2.50504,4.22325 -0.0684,0.58944 -0.20163,1.00581 -0.52817,1.65069 l -0.22669,0.44771 0.39706,0.44163 c 0.98777,1.09864 1.24327,2.55513 0.69092,3.93862 -0.11922,0.29863 -0.20337,0.55273 -0.18699,0.56466 0.0164,0.0119 0.21431,0.0901 0.43985,0.17368 1.78332,0.66091 2.95364,2.54417 2.65264,4.26858 -0.13284,0.7611 -0.60155,1.65476 -1.1783,2.24662 -0.26476,0.27169 -0.4961,0.49399 -0.5141,0.49399 -0.018,0 -0.21349,0.11465 -0.43445,0.25478 -0.88242,0.55961 -2.2821,0.84117 -3.41234,0.68642 -0.80637,-0.11041 -1.38552,-0.31375 -2.07339,-0.72796 -0.27592,-0.16615 -0.5103,-0.29176 -0.52085,-0.27914 -0.0105,0.0126 -0.0843,0.1509 -0.16384,0.30729 -0.7464,1.4672 -2.93566,2.22312 -4.69834,1.62227 l -0.5685,-0.19379 -0.70968,0.4068 c -1.34596,0.77151 -3.00592,1.36305 -4.68261,1.66871 -0.63431,0.11563 -1.29751,0.15753 -2.5344,0.16011 -1.63719,0.003 -2.3253,-0.066 -3.45121,-0.34813 l -0.48726,-0.12209 -0.71551,0.71212 c -0.77899,0.77529 -1.54938,1.22466 -2.51966,1.46971 -0.67576,0.17067 -1.67637,0.23105 -2.31962,0.13997 z m 10.60887,-16.34571 c 0.73145,-0.5003 0.91627,-0.60409 1.46174,-0.82084 1.04112,-0.4137 1.78451,-0.54836 3.10326,-0.56212 1.41599,-0.0148 1.51712,-0.0814 0.60951,-0.40186 -1.14884,-0.40558 -1.9701,-0.45375 -2.97937,-0.17474 -0.66116,0.18277 -1.47338,0.59014 -1.72004,0.8627 -0.25605,0.28293 -0.53093,0.223 -0.72538,-0.15815 -0.22638,-0.44374 -1.24991,-1.37918 -1.86898,-1.70812 -1.26856,-0.67404 -2.9776,-0.7217 -4.00072,-0.11155 -0.17719,0.10567 -0.32217,0.19852 -0.32217,0.20633 0,0.008 0.43493,0.0171 0.96651,0.0207 1.07552,0.007 1.97159,0.1982 3.01734,0.64321 0.74264,0.31602 2.18266,1.25708 2.25045,1.47069 0.0287,0.0903 -0.0444,0.32622 -0.17116,0.55309 -0.20622,0.36897 -0.26713,0.54583 -0.18797,0.54583 0.0183,0 0.27339,-0.16431 0.56698,-0.36513 z m 4.5344,-3.07602 c 1.03054,-0.78013 2.1583,-1.19809 3.23279,-1.19809 0.31212,0 0.5675,-0.0377 0.5675,-0.0837 0,-0.046 -0.12564,-0.15235 -0.27921,-0.23625 -0.21359,-0.1167 -0.47103,-0.15178 -1.09538,-0.14927 -0.74528,0.003 -0.86093,0.0267 -1.33163,0.27343 -0.55949,0.29321 -1.23686,0.90964 -1.55854,1.41834 -0.34598,0.5471 -0.28638,0.54396 0.46447,-0.0244 z m -47.696019,13.74233 c -2.208857,-0.18193 -4.496737,-0.85269 -5.978411,-1.75276 l -0.482068,-0.29284 -0.725632,0.13464 c -1.132354,0.2101 -3.632186,0.18668 -4.926583,-0.0462 -3.702881,-0.66608 -6.255504,-2.49994 -6.683543,-4.8016 -0.09049,-0.4866 -0.06517,-0.77405 0.138928,-1.57687 0.09607,-0.37791 0.524667,-1.05998 0.964757,-1.53533 1.500105,-1.6203 3.857016,-2.56779 7.160498,-2.87856 l 0.558427,-0.0525 v -0.78999 c 0,-0.93474 0.177758,-1.56287 0.645647,-2.28147 0.891376,-1.36901 2.527752,-2.41326 4.494269,-2.86801 0.615381,-0.1423 1.060894,-0.18154 2.033725,-0.17912 1.271015,0.003 1.969932,0.10785 2.966867,0.44441 l 0.477798,0.1613 0.271033,-0.39613 c 2.057348,-3.00693 6.814458,-4.42951 11.094016,-3.31759 1.754501,0.45586 3.151582,1.23511 4.305675,2.40159 1.173359,1.18594 1.664069,2.25693 1.734005,3.78452 0.03709,0.81018 -0.09017,1.60972 -0.349901,2.19839 -0.04792,0.10862 0.09414,0.20057 0.695379,0.45009 3.132573,1.30006 4.474433,3.95927 3.274123,6.48842 -0.33654,0.70911 -1.278121,1.70089 -2.102786,2.21488 -2.08826,1.30156 -4.909908,1.58438 -7.475948,0.74934 -0.716771,-0.23325 -0.732856,-0.23461 -0.824773,-0.0698 -0.05156,0.0925 -0.289536,0.37638 -0.528837,0.63091 -1.649587,1.75455 -4.527817,2.91508 -7.900422,3.18554 -1.224961,0.0982 -1.587266,0.0976 -2.836243,-0.005 z m 4.588434,-2.3386 c 1.993756,-0.4725 3.613842,-1.22293 4.682196,-2.1688 1.283,-1.13591 1.999487,-1.40272 3.280113,-1.22149 0.285311,0.0404 0.389187,0.0176 0.505475,-0.11091 0.0805,-0.089 0.185833,-0.13734 0.23407,-0.10753 0.05024,0.0311 0.06152,0.0118 0.0264,-0.045 -0.03372,-0.0546 -0.02036,-0.0992 0.02968,-0.0992 0.05004,0 0.09098,-0.0462 0.09098,-0.10276 0,-0.0565 -0.143294,0.0305 -0.31843,0.1933 -0.175136,0.16283 -0.264357,0.21874 -0.198269,0.12424 0.1803,-0.25782 0.974343,-1.0739 1.044903,-1.0739 0.03386,0 -0.06784,0.19229 -0.226004,0.42732 -0.290435,0.43158 -0.453373,0.91061 -0.346213,1.01785 0.03204,0.0321 0.721937,0.0583 1.533111,0.0583 1.150929,0 1.596914,-0.0337 2.030569,-0.15337 1.832688,-0.50582 3.186438,-1.75275 3.39769,-3.12959 0.109926,-0.71645 -0.310979,-1.66351 -1.045946,-2.35345 -0.30537,-0.28666 -1.083108,-0.84994 -1.173542,-0.84994 -0.0216,0 -0.375763,0.37185 -0.78702,0.82633 l -0.747739,0.82633 0.366264,0.20804 c 1.13651,0.64555 1.185959,1.50387 0.117227,2.03478 -0.9679,0.48083 -2.208915,0.54565 -3.711525,0.19386 -1.389793,-0.32537 -2.423414,-0.327 -3.242683,-0.005 -0.28353,0.1114 -1.270331,0.77821 -1.546414,1.04496 -1.287069,1.24353 -2.826885,1.98597 -4.982888,2.40254 -0.984541,0.19022 -3.316374,0.19332 -4.227506,0.006 -0.589089,-0.12137 -0.626435,-0.11959 -0.767786,0.0366 -0.08172,0.0903 -0.201351,0.14393 -0.26585,0.11918 -0.0645,-0.0247 -0.09606,-0.0107 -0.07013,0.0313 0.0672,0.10874 -0.544817,0.62468 -0.658016,0.55472 -0.05364,-0.0331 -0.06973,-0.0188 -0.03745,0.0334 0.03113,0.0504 -0.125668,0.252 -0.34843,0.44808 -0.481349,0.4237 -0.476205,0.42965 0.602205,0.69611 1.459943,0.36074 2.065195,0.41875 4.011775,0.38447 1.595891,-0.0281 1.969792,-0.0616 2.74918,-0.24631 z m -8.20447,-1.08968 c 0.316007,-0.14178 0.615536,-0.23246 0.665622,-0.20151 0.05769,0.0357 0.06529,0.0146 0.02074,-0.0575 -0.05149,-0.0833 -0.03084,-0.0986 0.0771,-0.0572 0.09935,0.0381 0.127365,0.0241 0.08591,-0.0429 -0.04145,-0.0671 -0.01344,-0.0811 0.08591,-0.043 0.09935,0.0381 0.127365,0.0241 0.08591,-0.043 -0.04145,-0.0671 -0.01344,-0.0811 0.08591,-0.043 0.08473,0.0325 0.125864,0.0217 0.09672,-0.0255 -0.02788,-0.0451 0.192404,-0.20551 0.489531,-0.35642 l 0.540231,-0.27438 -0.607447,-0.15074 c -0.334096,-0.0829 -1.103733,-0.37035 -1.710306,-0.63877 -1.99834,-0.88431 -2.37568,-0.94568 -4.555196,-0.74094 -1.919317,0.1803 -3.441668,-0.0194 -5.009359,-0.65714 -0.914552,-0.37203 -1.210931,-0.95045 -0.725257,-1.41542 0.463999,-0.44421 1.555396,-0.81206 3.114305,-1.04964 1.921715,-0.29287 2.706074,-0.60926 3.541826,-1.42868 0.587885,-0.57639 0.929957,-1.25096 1.184799,-2.33645 0.327842,-1.39643 0.641843,-1.79811 1.711382,-2.18926 0.893029,-0.3266 1.922654,-0.3484 3.390717,-0.0718 1.635305,0.30813 2.297762,0.29087 3.113995,-0.0811 0.148895,-0.0679 0.296191,-0.12337 0.327323,-0.12337 0.127658,0 0.912113,-0.65827 1.678622,-1.40861 1.313928,-1.2862 2.426391,-1.82657 4.176754,-2.02882 1.931281,-0.22316 4.109072,0.36416 5.113264,1.37898 0.723287,0.73094 0.828826,1.14288 0.677378,2.64395 -0.08667,0.85902 -0.08185,1.08765 0.0334,1.58454 0.260416,1.12274 0.815571,1.90394 1.818073,2.55836 0.286804,0.18722 0.548613,0.3404 0.581798,0.3404 0.119691,0 0.581524,-0.8256 0.696848,-1.24572 0.19595,-0.71385 0.23064,-0.91952 0.146302,-0.8674 -0.04367,0.027 -0.236581,-0.12144 -0.428682,-0.32984 -0.470606,-0.51055 -0.649978,-1.12628 -0.571917,-1.96324 0.189747,-2.03443 -0.03235,-2.84228 -1.093156,-3.97629 -1.205143,-1.2883 -2.837115,-2.04762 -5.007365,-2.32981 -1.228098,-0.15969 -2.526527,-0.0604 -3.734175,0.28556 -1.504282,0.43093 -2.521629,1.03059 -3.804138,2.2423 -0.46184,0.43634 -1.003652,0.87706 -1.204027,0.97938 -0.529595,0.27042 -1.289575,0.29537 -2.501764,0.0821 -2.151895,-0.37858 -3.895627,-0.10673 -5.396862,0.84138 -1.034493,0.65334 -1.509099,1.36421 -1.862319,2.78937 -0.434558,1.75334 -0.943834,2.15175 -3.190841,2.49618 -1.140158,0.17477 -2.168873,0.48643 -3.048006,0.92342 -2.346368,1.16633 -3.002877,2.80533 -1.722737,4.30088 0.78512,0.91724 2.153912,1.61285 4.041873,2.05407 0.800634,0.1871 1.043343,0.20118 3.565342,0.20674 l 2.706224,0.006 0.687295,0.27517 c 0.378012,0.15135 0.745285,0.31311 0.816162,0.35947 0.178312,0.11662 0.173051,0.11772 0.816276,-0.17087 z m 1.679101,-0.67234 c 0.104553,-0.0954 0.08873,-0.0977 -0.097,-0.0142 -0.122066,0.0549 -0.221939,0.15958 -0.221939,0.23272 0,0.11162 0.01557,0.1139 0.097,0.0142 0.05335,-0.0653 0.153225,-0.17004 0.221939,-0.23272 z m 15.548947,-2.37748 c 0.116583,-0.15894 0.11476,-0.16298 -0.02431,-0.0539 -0.08269,0.0649 -0.150345,0.15828 -0.150345,0.20762 0,0.0493 0.01094,0.0736 0.02431,0.0539 0.01337,-0.0197 0.08103,-0.11312 0.150345,-0.20762 z m 4.117037,-5.23073 c 0.0021,-0.0418 -0.08062,0.0314 -0.183923,0.16275 -0.173494,0.22057 -0.192697,0.22637 -0.251698,0.076 -0.04481,-0.11418 -0.06568,-0.12392 -0.06991,-0.0326 -0.0033,0.0716 -0.08728,0.2842 -0.186584,0.47251 -0.178111,0.33776 -0.174688,0.336 0.253836,-0.13014 0.23891,-0.25988 0.436136,-0.50672 0.438281,-0.54853 z m -10.085605,-0.18439 c -0.09168,-0.0693 -0.381629,-0.21073 -0.644339,-0.3142 -0.679219,-0.2675 -2.656386,-0.26608 -3.613437,0.003 -0.477377,0.13402 -0.544162,0.16786 -0.257736,0.13062 1.766291,-0.22964 2.804746,-0.2053 3.872127,0.0908 0.398287,0.11048 0.743488,0.20434 0.767114,0.20858 0.02363,0.004 -0.03205,-0.049 -0.123729,-0.11837 z m 10.358199,-0.10472 c 0.106863,-0.13626 0.103824,-0.1393 -0.03244,-0.0324 -0.143107,0.11224 -0.188617,0.18279 -0.117909,0.18279 0.01784,0 0.0855,-0.0677 0.150346,-0.15035 z m -0.553654,-0.1235 c -0.02742,-0.0685 -0.04778,-0.0482 -0.05191,0.0519 -0.0037,0.0906 0.01658,0.1413 0.04512,0.11276 0.02855,-0.0285 0.0316,-0.10265 0.0068,-0.16467 z"
         id="path3" /><path
         style="fill:#b27209"
         d="m 122.41941,154.61113 c -0.24051,-0.10051 -0.94731,-0.63834 -1.65997,-1.26312 -0.33228,-0.29131 -0.78971,-0.6384 -1.01651,-0.77132 -0.3849,-0.22556 -0.48824,-0.24388 -1.55152,-0.27495 -0.62654,-0.0183 -1.59395,0.0121 -2.14979,0.0676 -0.87895,0.0878 -5.45688,0.69847 -6.15907,0.82163 -0.37457,0.0657 -0.20684,-0.0451 0.4623,-0.30547 1.57981,-0.61467 3.70426,-2.76821 5.7166,-5.79491 2.76998,-4.16623 4.33969,-8.1926 4.37089,-11.2115 0.0106,-1.0216 -10e-4,-1.099 -0.2388,-1.58937 -0.35384,-0.72988 -1.67591,-2.02073 -3.30389,-3.22586 -0.72604,-0.53746 -1.27976,-0.99064 -1.23047,-1.00707 0.15768,-0.0526 2.86625,2.05727 3.66951,2.85834 0.56774,0.5662 0.83224,0.90402 0.98798,1.26183 l 0.21268,0.48861 0.53048,0.0576 c 0.29177,0.0317 0.58172,0.0372 0.64434,0.0122 0.0629,-0.0251 0.0288,-0.0485 -0.0761,-0.0523 -0.23723,-0.008 -0.40214,-0.5066 -0.40764,-1.23132 -0.003,-0.44267 0.0226,-0.51693 0.24869,-0.7112 0.13884,-0.1193 0.3414,-0.23924 0.45013,-0.26653 0.28265,-0.0709 0.91687,0.0212 1.21804,0.17692 0.14155,0.0732 0.61086,0.19409 1.0429,0.26865 1.33284,0.23001 1.89051,0.5869 1.89051,1.20985 0,0.24053 -0.0325,0.29025 -0.1933,0.29589 -0.10632,0.004 -0.14379,0.0267 -0.0833,0.051 0.14827,0.0596 1.30528,-0.20215 1.99481,-0.45124 l 0.55843,-0.20173 -0.77321,0.75114 c -0.42526,0.41312 -1.07958,1.03295 -1.45404,1.37739 l -0.68084,0.62626 0.0123,0.46921 c 0.0231,0.87799 0.86632,3.06392 2.67437,6.93292 0.5234,1.12 1.38074,2.95455 1.9052,4.07678 1.65683,3.54523 2.266,5.11809 2.20971,5.70541 -0.0244,0.25448 -0.0593,0.29 -0.30831,0.31398 -0.39255,0.0378 -0.97575,-0.25006 -2.42858,-1.19874 -1.49909,-0.97888 -2.08672,-1.31916 -2.58429,-1.49645 -1.00479,-0.35802 -1.67213,-0.31709 -2.07007,0.12698 -0.14935,0.16665 -0.32944,0.5772 -0.50135,1.14289 -0.41402,1.36239 -0.51771,1.60318 -0.78853,1.83106 -0.26223,0.22065 -0.78051,0.27922 -1.14032,0.12887 z m 1.40708,-3.49923 c -0.30765,-0.99513 -0.33975,-1.41569 -0.2315,-3.03329 0.0441,-0.65868 0.0384,-0.73328 -0.0296,-0.38661 -0.0463,0.23626 -0.0903,0.95148 -0.0978,1.58937 -0.0138,1.1798 0.0753,1.72613 0.41136,2.52221 0.26396,0.62538 0.23446,0.2364 -0.0525,-0.69168 z m 4.30606,0.29366 c 0,-0.0602 -0.176,-0.27515 -0.39111,-0.47757 -0.37148,-0.34959 -0.38855,-0.38612 -0.34023,-0.72812 0.0391,-0.27691 0.01,-0.42571 -0.12614,-0.64428 -0.1909,-0.30651 -0.75552,-0.61288 -1.13518,-0.61598 -0.31413,-0.003 -0.66531,0.32007 -0.74607,0.68541 -0.0807,0.36484 0.0433,0.92563 0.17541,0.79353 0.10699,-0.10698 0.11858,-0.39463 0.0309,-0.76736 -0.0585,-0.2488 -0.0375,-0.29122 0.22445,-0.45291 0.31147,-0.19226 0.60975,-0.1734 0.86274,0.0545 0.0793,0.0714 0.30601,0.51343 0.50381,0.98219 0.1978,0.46875 0.43534,0.94853 0.52788,1.06617 0.17889,0.22743 0.41351,0.28664 0.41351,0.10437 z m 1.50888,-0.73424 c -0.20764,-0.58851 -0.53885,-1.15929 -1.20537,-2.07724 -0.80851,-1.11352 -1.65529,-2.81756 -2.36937,-4.76811 -0.29407,-0.80328 -0.68393,-1.77678 -0.86635,-2.16335 -0.36905,-0.78206 -0.58185,-1.57006 -0.59901,-2.21816 l -0.0114,-0.42956 -0.0701,0.41766 c -0.0874,0.52109 0.0354,0.94015 0.94727,3.2336 0.36636,0.9214 0.78855,2.04629 0.93819,2.49975 0.30453,0.92279 0.73301,1.70831 1.89342,3.47112 0.43546,0.66152 0.91448,1.46296 1.06449,1.78097 0.29628,0.6281 0.46441,0.78122 0.27816,0.25332 z m -12.78852,-1.54222 c 0.29962,-0.34363 0.6163,-0.78822 0.70374,-0.98798 0.19691,-0.44985 0.35872,-0.94394 0.32137,-0.98129 -0.0605,-0.0605 -1.61875,2.10934 -1.90205,2.64846 -0.38877,0.73982 -0.38254,0.88225 0.0158,0.36026 0.17402,-0.22806 0.56154,-0.69582 0.86117,-1.03945 z m 7.6585,-1.39615 c 0.0961,-0.28461 0.14194,-0.4972 0.10184,-0.47241 -0.0705,0.0436 -0.34673,0.77594 -0.34673,0.91928 0,0.18181 0.0849,0.0269 0.24489,-0.44687 z m -6.05055,-1.54441 c 0.1107,-0.21263 0.38095,-1.15981 0.60057,-2.10484 0.5505,-2.36882 0.74918,-3.03287 1.28894,-4.30796 0.45922,-1.08484 0.71544,-1.88535 0.6306,-1.97018 -0.0236,-0.0236 -0.0877,0.13482 -0.14244,0.35211 -0.0547,0.21729 -0.32616,0.96298 -0.60322,1.65709 -0.55167,1.38209 -0.85984,2.35479 -1.08029,3.40983 -0.1876,0.89782 -0.58301,2.26379 -0.85647,2.95877 -0.31906,0.81087 -0.25816,0.81282 0.16231,0.005 z m 2.20579,-0.11531 c 0.0927,-0.3231 -0.0387,-0.193 -0.15974,0.15827 -0.19254,0.55851 -0.19828,0.59274 -0.059,0.35141 0.0793,-0.13749 0.17779,-0.36684 0.21875,-0.50968 z m 3.57085,-2.48352 c -0.0238,-0.0591 -0.0433,-0.0107 -0.0433,0.10739 0,0.11813 0.0195,0.16646 0.0433,0.10739 0.0238,-0.0591 0.0238,-0.15571 0,-0.21478 z m 0.34192,-1.82563 c -0.041,-0.12064 -0.23013,0.77229 -0.27294,1.28868 -0.0231,0.27857 0.0238,0.14267 0.13327,-0.3866 0.0929,-0.44889 0.15573,-0.85482 0.13967,-0.90208 z m -2.68938,-1.76527 c 0.0317,-0.24238 -0.0104,-0.14646 -0.11485,0.26182 -0.0907,0.35438 -0.16266,0.683 -0.15992,0.73025 0.01,0.16539 0.22521,-0.61317 0.27477,-0.99207 z m 2.69111,-1.82155 c -0.0238,-0.0591 -0.0433,-0.0107 -0.0433,0.10739 0,0.11813 0.0195,0.16646 0.0433,0.10739 0.0238,-0.0591 0.0238,-0.15571 0,-0.21478 z m -2.58895,-0.21478 c -0.18117,-1.44582 -0.24353,-1.75708 -0.32342,-1.61433 -0.0856,0.15302 -0.0611,0.36611 0.16133,1.39955 0.15245,0.70845 0.23819,0.82204 0.16209,0.21478 z m 2.73024,-0.62286 c 0.0308,-0.35017 0.0222,-0.47833 -0.023,-0.34364 -0.0707,0.21054 -0.11981,1.00828 -0.0577,0.93787 0.0174,-0.0197 0.0537,-0.28709 0.0807,-0.59423 z m -44.18506,15.9234 c -0.16538,-0.0158 -0.725955,-0.0691 -1.245722,-0.11844 -3.57087,-0.33902 -8.076162,-1.37042 -7.927983,-1.81496 0.01656,-0.0497 0.183394,-0.14217 0.370747,-0.20554 0.765896,-0.25905 1.526715,-1.53135 2.269677,-3.79552 1.032804,-3.14746 2.102118,-8.29962 2.963796,-14.28014 l 0.297478,-2.06466 -0.256931,-2.59964 c -0.141312,-1.4298 -0.241572,-2.67696 -0.222801,-2.77147 0.01877,-0.0945 0.03939,-0.01 0.04583,0.18823 0.0064,0.19803 0.0407,0.37712 0.07613,0.39798 0.125534,0.0739 0.664229,0.15336 0.564022,0.0832 -0.05599,-0.0392 -0.127293,-0.28317 -0.158456,-0.54216 -0.08726,-0.72525 -0.109691,-0.84696 -0.175781,-0.95389 -0.05858,-0.0948 0.371612,-0.0584 0.736724,0.0622 0.190069,0.0628 1.367195,1.7851 1.264974,1.85081 -0.07041,0.0453 0.721068,0.2501 1.806082,0.46743 0.137116,0.0275 0.281028,0.21344 0.496957,0.64222 l 0.303947,0.60356 0.233295,-0.16256 c 2.131764,-1.48537 9.85748,-6.73927 9.965898,-6.77735 0.302629,-0.10629 -0.105068,0.18279 -4.148333,2.94141 -2.268073,1.54746 -4.160497,2.84652 -4.205386,2.88681 -0.04545,0.0408 0.392338,0.0688 0.987987,0.0633 0.588281,-0.005 1.001777,-0.0277 0.918879,-0.0493 -0.115376,-0.0301 -0.05493,-0.10468 0.257736,-0.31791 0.944031,-0.64378 2.92988,-2.00531 4.875875,-3.34298 0.808068,-0.55546 2.04384,-1.39515 2.501271,-1.69958 0.112548,-0.0749 0.178931,-0.16189 0.147518,-0.1933 -0.08249,-0.0825 0.498246,-0.0587 0.701774,0.0288 0.0945,0.0406 0.123498,0.0766 0.06443,0.0799 -0.05907,0.003 -0.10739,0.0583 -0.10739,0.12209 0,0.22114 -0.837431,1.21981 -1.7795,2.12212 -1.010667,0.96801 -3.295224,2.85192 -3.639868,3.00154 -0.17359,0.0754 -0.139349,0.0845 0.207694,0.0553 0.228554,-0.0192 0.383195,-0.006 0.343647,0.0288 -0.424824,0.3766 -3.346622,2.4693 -4.904447,3.51275 -0.437077,0.29275 -0.794685,0.56199 -0.794685,0.5983 0,0.0363 0.291251,1.05014 0.647226,2.25297 1.766892,5.97027 3.10885,11.45438 3.61495,14.77304 0.20819,1.36517 0.214746,3.37912 0.01221,3.75187 -0.468828,0.86287 -2.031031,1.23945 -5.047597,1.21676 -0.968656,-0.007 -1.896504,-0.0262 -2.061885,-0.0419 z m 0.242942,-1.77955 c -0.191511,-0.50449 -0.199954,-0.62511 -0.199227,-2.84644 5.75e-4,-1.75672 0.03853,-2.59785 0.156424,-3.46619 0.08561,-0.63062 0.138665,-1.16357 0.117887,-1.18435 -0.08812,-0.0881 -0.330943,1.92413 -0.415149,3.44026 -0.127257,2.29123 -9.14e-4,3.96441 0.363856,4.81858 l 0.110064,0.25774 0.03307,-0.2464 c 0.01819,-0.13551 -0.05693,-0.48345 -0.166921,-0.7732 z m -4.242411,-0.61273 c 0.189859,-0.77164 0.479318,-2.28084 0.46958,-2.44832 -0.0041,-0.071 -0.118842,0.39288 -0.254925,1.03078 -0.136082,0.63789 -0.306677,1.34104 -0.3791,1.56255 -0.148267,0.45349 -0.17065,0.66254 -0.0576,0.53799 0.04074,-0.0449 0.140664,-0.35224 0.222045,-0.683 z m 11.177059,-0.73946 c -0.02688,-0.35945 -0.108178,-0.85322 -0.180653,-1.09728 -0.07248,-0.24405 -0.104494,-0.4912 -0.07115,-0.54922 0.03334,-0.058 0.02949,-0.0773 -0.0086,-0.0429 -0.03805,0.0344 -0.191555,-0.21688 -0.341129,-0.55843 -0.149574,-0.34154 -0.439987,-0.89161 -0.645363,-1.22237 -0.205376,-0.33076 -0.50384,-0.8137 -0.663254,-1.0732 -0.37406,-0.60891 -0.746197,-1.77873 -0.974138,-3.06223 -0.198296,-1.11657 -0.482703,-2.54019 -0.812927,-4.06915 -0.117361,-0.5434 -0.217878,-1.14263 -0.223371,-1.33164 l -0.01,-0.34364 -0.0757,0.30069 c -0.111234,0.44182 -0.01214,1.09851 0.369492,2.44849 0.21819,0.77182 0.369068,1.52596 0.421108,2.10484 0.183914,2.04581 0.57957,3.13969 2.028382,5.60794 0.816461,1.39095 0.968597,1.86735 1.034981,3.24098 0.04506,0.93231 0.06174,1.02293 0.126521,0.68729 0.04104,-0.21263 0.05263,-0.6807 0.02574,-1.04015 z m -3.60731,0.97908 c -0.02634,-0.0686 -0.05061,-0.1893 -0.05393,-0.26812 -0.0048,-0.11453 -0.02087,-0.10881 -0.07987,0.0285 -0.123188,0.28667 -0.101704,0.47318 0.04789,0.41578 0.07359,-0.0282 0.112253,-0.10751 0.08591,-0.17616 z m 0.277026,-1.65716 c -0.0014,-0.19293 -0.0083,-0.18856 -0.06718,0.0429 -0.03607,0.14176 -0.0663,0.33506 -0.06718,0.42956 -0.0013,0.13464 0.01328,0.12535 0.06718,-0.043 0.03783,-0.11813 0.06806,-0.31144 0.06718,-0.42956 z m 0.219433,-1.84711 c 0.01614,-1.08389 -0.0799,-1.83045 -0.217759,-1.69259 -0.06183,0.0618 -0.05613,0.2277 0.01851,0.53883 0.0717,0.29887 0.09414,0.84102 0.06696,1.6178 -0.02888,0.82542 -0.01753,1.06743 0.03867,0.82464 0.04375,-0.18901 0.08588,-0.76891 0.09362,-1.28868 z m -7.532227,0.36513 c -0.02383,-0.0591 -0.04333,-0.0107 -0.04333,0.10739 0,0.11812 0.0195,0.16645 0.04333,0.10739 0.02383,-0.0591 0.02383,-0.15572 0,-0.21478 z m 0.08591,-0.42956 c -0.02383,-0.0591 -0.04333,-0.0107 -0.04333,0.10739 0,0.11813 0.0195,0.16645 0.04333,0.10739 0.02383,-0.0591 0.02383,-0.15572 0,-0.21478 z m 5.261007,-1.37459 c -0.0068,-0.76163 -0.02422,-0.89366 -0.08218,-0.62286 -0.04045,0.189 -0.118419,0.53102 -0.173263,0.76004 -0.07862,0.32828 -0.07634,0.46008 0.01078,0.62286 0.06077,0.11355 0.142626,0.20647 0.181893,0.20647 0.03927,0 0.06751,-0.43493 0.06276,-0.96651 z M 76.71259,143.2021 c 0.03299,-0.17664 0.03467,-0.29606 0.0037,-0.26539 -0.09687,0.096 -0.296561,1.38022 -0.299699,1.92736 -0.0053,0.92894 0.12421,0.68254 0.180932,-0.34416 0.03028,-0.54816 0.08206,-1.14117 0.115052,-1.31781 z m 4.227123,0.39298 c -0.02743,-0.0685 -0.04778,-0.0482 -0.05191,0.0519 -0.0037,0.0906 0.01658,0.1413 0.04512,0.11275 0.02855,-0.0285 0.0316,-0.10264 0.0068,-0.16466 z m 2.584656,-1.97305 c 0.05526,-0.8854 -0.07178,-1.36866 -0.707993,-2.69304 -0.888589,-1.84974 -1.188456,-2.9961 -1.337141,-5.11175 -0.246196,-3.50316 -0.510943,-5.56224 -0.772654,-6.00934 -0.154556,-0.26404 -0.08606,0.42534 0.126013,1.26836 0.243813,0.96916 0.35767,1.99275 0.479571,4.31142 0.142449,2.70951 0.290992,3.39541 1.116338,5.15471 1.025728,2.18643 1.142032,2.78138 0.814534,4.16672 -0.02234,0.0945 0.02259,0.0365 0.09983,-0.12886 0.07725,-0.16538 0.158924,-0.59658 0.181497,-0.95822 z m -4.645692,0.55177 c -0.02178,-0.0836 -0.04104,-0.036 -0.04279,0.10575 -0.0018,0.14176 0.01607,0.21015 0.0396,0.15199 0.02353,-0.0582 0.02497,-0.17415 0.0032,-0.25774 z m 0.06675,-2.67391 c -0.04066,-0.45298 -0.08303,-0.60557 -0.149632,-0.53896 -0.0666,0.0666 -0.06413,0.28198 0.0087,0.76074 0.05591,0.3673 0.109607,1.0351 0.11933,1.48399 l 0.01768,0.81616 0.0303,-0.94503 c 0.01667,-0.51977 0.0048,-1.22937 -0.02642,-1.5769 z m 2.233023,0.24648 c -0.04784,-0.19231 -0.06165,-0.19835 -0.138652,-0.0608 -0.05726,0.10231 -0.05504,0.29494 0.0067,0.58292 0.05073,0.23655 0.100505,0.70849 0.110606,1.04874 0.01216,0.4098 0.02783,0.28512 0.04641,-0.36936 0.01543,-0.54339 0.0041,-1.08409 -0.02509,-1.20155 z m -3.819034,-1.05686 c 0.199335,-0.45063 0.34559,-1.32757 0.259998,-1.55895 -0.106824,-0.28877 -0.518135,0.42879 -0.577942,1.00826 -0.04649,0.45042 0.009,0.91904 0.108855,0.91904 0.02538,0 0.119473,-0.16576 0.209089,-0.36835 z m 1.946265,-4.10207 c 0.0555,-1.31815 -0.01804,-2.57435 -0.150724,-2.57435 -0.04709,0 -0.05282,0.30409 -0.01415,0.75173 0.07761,0.89849 0.08017,2.04431 0.0067,2.98543 -0.03872,0.49568 -0.03147,0.60347 0.02597,0.38661 0.04381,-0.16538 0.103313,-0.86262 0.132232,-1.54942 z m 3.856914,-0.47358 c -0.06241,-0.33268 -0.202676,-0.45908 -0.317533,-0.28615 -0.09358,0.14089 -0.02797,0.56817 0.113384,0.7385 0.150865,0.18178 0.272536,-0.0878 0.204149,-0.45235 z m -2.897271,-3.96936 c -0.01575,-0.0354 -0.208563,-0.39304 -0.428473,-0.79468 -0.552778,-1.00958 -1.21113,-2.55882 -1.137798,-2.67748 0.03497,-0.0566 0.02293,-0.0749 -0.02838,-0.0432 -0.0505,0.0312 -0.168944,-0.13052 -0.273398,-0.37333 -0.101361,-0.23562 -0.200085,-0.4284 -0.219387,-0.4284 -0.104178,0 0.349636,1.29092 0.756647,2.15236 0.257927,0.54591 0.518656,1.15843 0.579398,1.36117 0.113054,0.37734 0.496569,0.86798 0.678471,0.86798 0.05586,0 0.08867,-0.029 0.07292,-0.0644 z m 48.425656,3.24318 c 0.0855,-0.0945 0.17483,-0.17183 0.19845,-0.17183 0.0236,0 -0.027,0.0773 -0.11254,0.17183 -0.0855,0.0945 -0.17483,0.17182 -0.19845,0.17182 -0.0236,0 0.027,-0.0773 0.11254,-0.17182 z m -4.95604,-1.26146 c 0.062,-0.0248 0.13612,-0.0218 0.16466,0.007 0.0285,0.0285 -0.0222,0.0488 -0.11276,0.0451 -0.10008,-0.004 -0.12044,-0.0245 -0.0519,-0.0519 z m 4.75123,-0.41401 c 0.78642,-0.8399 1.75556,-2.3018 2.50583,-3.77994 0.16789,-0.33076 0.36924,-0.6787 0.44746,-0.7732 0.19376,-0.23411 -0.6532,1.36593 -1.22787,2.31962 -0.62984,1.04527 -1.20277,1.80417 -1.75103,2.31943 l -0.45688,0.42938 z m -3.63898,-0.15041 c 0.48128,-0.56708 0.95098,-1.84131 1.10403,-2.99508 0.0306,-0.23082 0.0901,-0.41967 0.13215,-0.41967 0.0421,0 0.0563,0.087 0.0316,0.1933 -0.0247,0.10632 -0.1008,0.46393 -0.16918,0.79469 -0.24759,1.19761 -0.65506,2.1107 -1.13101,2.5344 -0.21993,0.19579 -0.21707,0.18628 0.0324,-0.10764 z m -5.61192,-0.42931 -0.25233,-0.27921 0.27921,0.25233 c 0.15357,0.13878 0.27922,0.26443 0.27922,0.27921 0,0.0664 -0.0709,0.008 -0.3061,-0.25233 z m 2.36798,0.24675 c 0,-0.0179 0.0627,-0.18216 0.13934,-0.36513 0.10673,-0.25479 0.12787,-0.49353 0.0903,-1.01995 -0.027,-0.37801 -0.0748,-0.77428 -0.1064,-0.8806 -0.0338,-0.11373 -0.0204,-0.1933 0.0324,-0.1933 0.23466,0 0.29077,1.78583 0.0695,2.21362 -0.12471,0.24117 -0.22517,0.35063 -0.22517,0.24536 z m -44.907333,-6.36797 c 6.45e-4,-0.23626 0.01733,-0.32271 0.03708,-0.19212 0.01975,0.13059 0.01922,0.32389 -0.0012,0.42956 -0.02039,0.10566 -0.03655,-0.001 -0.0359,-0.23744 z m 16.900064,-1.79363 c 0,-0.0178 0.06766,-0.0855 0.150346,-0.15035 0.136261,-0.10686 0.1393,-0.10382 0.03244,0.0324 -0.112233,0.14311 -0.182783,0.18862 -0.182783,0.11791 z"
         id="path2" /><path
         style="fill:#4a5f02"
         d="m 120.78709,134.70079 c -0.22025,-0.029 -0.28867,-0.10514 -0.47042,-0.5232 -0.15598,-0.35881 -0.41935,-0.69534 -0.98798,-1.26243 -0.81414,-0.81193 -3.51271,-2.91061 -3.67362,-2.85697 -0.0515,0.0172 0.40202,0.39419 1.00791,0.83779 l 1.10163,0.80656 -0.33587,0.29527 c -0.18472,0.16239 -0.58715,0.4159 -0.89429,0.56335 -0.52546,0.25226 -0.61675,0.26809 -1.54641,0.26809 -0.90217,0 -1.03276,-0.0209 -1.50346,-0.24062 -0.78259,-0.36531 -1.39628,-1.01913 -1.58975,-1.69371 l -0.0648,-0.22613 0.91321,-0.001 c 1.68359,-0.003 2.87933,-0.48812 4.03496,-1.63828 l 0.71622,-0.71282 0.34373,0.0926 c 2.08194,0.56061 5.04572,0.5443 7.29588,-0.0401 0.44321,-0.11511 0.82259,-0.19254 0.84307,-0.17206 0.14854,0.14854 -0.53512,2.57632 -0.75927,2.69628 -0.079,0.0422 -0.54734,0.12126 -1.04086,0.17556 -0.49351,0.0543 -0.90616,0.1076 -0.91699,0.11843 -0.0532,0.0532 0.17027,0.6635 0.30312,0.82756 0.13626,0.16828 0.18538,0.17775 0.49186,0.0949 0.68271,-0.18454 1.22884,-0.82469 1.59051,-1.86433 0.19448,-0.55907 0.51923,-2.03263 0.46082,-2.09104 -0.0202,-0.0202 0.28385,-0.16071 0.67571,-0.31221 0.73908,-0.28573 1.67069,-0.7404 2.23584,-1.0912 l 0.32681,-0.20285 0.57527,0.19606 c 1.76976,0.60317 3.95727,-0.15 4.70509,-1.62 0.0796,-0.15639 0.15329,-0.29467 0.16384,-0.30729 0.0105,-0.0126 0.24493,0.11299 0.52085,0.27914 0.68787,0.41421 1.26702,0.61755 2.07339,0.72796 1.13024,0.15475 2.52992,-0.12681 3.41234,-0.68642 0.22096,-0.14013 0.43757,-0.25478 0.48136,-0.25478 0.13321,0 0.27771,0.70106 0.2206,1.07029 -0.17839,1.15345 -1.13202,2.04056 -2.4506,2.27966 -0.93429,0.16942 -1.71585,-0.0234 -2.62369,-0.64726 -0.86057,-0.59139 -1.70602,-0.42825 -2.24454,0.43309 -0.53728,0.85934 -1.22027,1.33164 -1.9257,1.33164 -0.19315,0 -0.33582,0.14313 -0.87778,0.8806 -0.70451,0.95864 -1.64332,2.07759 -2.55255,3.04232 -0.53665,0.56942 -0.63048,0.63128 -1.25778,0.82927 -0.81762,0.25806 -1.73655,0.44637 -1.81167,0.37126 -0.0301,-0.0301 0.0291,-0.0547 0.13149,-0.0547 0.15404,0 0.18615,-0.0499 0.18615,-0.28911 0,-0.62295 -0.55767,-0.97984 -1.89051,-1.20985 -0.43204,-0.0746 -0.90135,-0.19545 -1.0429,-0.26865 -0.30117,-0.15574 -0.93539,-0.24786 -1.21804,-0.17692 -0.10873,0.0273 -0.31129,0.14723 -0.45013,0.26653 -0.22608,0.19427 -0.25205,0.26853 -0.24869,0.7112 0.005,0.70523 0.16736,1.20393 0.40609,1.25005 0.23897,0.0462 -0.48817,0.0452 -0.8394,-10e-4 z m 6.72641,-2.16322 c 0.7888,-0.40241 1.76271,-1.50656 2.69809,-3.05888 0.58383,-0.96891 1.4142,-2.52093 1.28574,-2.40315 -0.053,0.0486 -0.30189,0.47246 -0.55315,0.942 -0.4268,0.79755 -0.47797,0.85808 -0.77809,0.92044 -0.17668,0.0367 -0.65229,0.26598 -1.05691,0.5095 -0.40462,0.24352 -1.18616,0.62498 -1.73675,0.84768 l -1.00107,0.40493 -0.14311,0.67797 c -0.1754,0.831 -0.19247,1.29227 -0.0502,1.35643 0.2083,0.0939 0.99177,-0.0216 1.33544,-0.19692 z m -6.23729,-0.92842 c 0.51551,-0.28057 0.69338,-0.59095 0.70318,-1.227 0.01,-0.63739 -0.1111,-1.46189 -0.21439,-1.46189 -0.0515,0 -0.0574,0.12374 -0.0153,0.32217 0.0868,0.40942 0.0893,1.7048 0.003,1.7905 -0.0357,0.0356 -0.49965,-0.0255 -1.03094,-0.13586 -1.25466,-0.26062 -1.78216,-0.30982 -1.78216,-0.16623 0,0.15653 0.74545,0.8486 1.06282,0.98671 0.4128,0.17965 0.80561,0.14621 1.27341,-0.1084 z m -35.584118,-1.45748 c -0.16538,-0.0225 -0.332543,-0.0719 -0.371474,-0.10985 -0.03893,-0.0379 0.309013,-0.33252 0.773207,-0.65466 0.739483,-0.51319 2.779182,-2.01183 2.977779,-2.18788 0.03955,-0.0351 -0.115093,-0.048 -0.343647,-0.0288 -0.347043,0.0292 -0.381284,0.0201 -0.207694,-0.0553 0.344644,-0.14962 2.629201,-2.03353 3.639868,-3.00154 0.942069,-0.90231 1.7795,-1.90098 1.7795,-2.12212 0,-0.0638 0.04832,-0.11877 0.10739,-0.12209 0.05906,-0.003 0.03007,-0.0393 -0.06443,-0.0799 -0.115552,-0.0496 0.058,-0.0758 0.529922,-0.0799 0.385961,-0.003 0.762899,-0.0295 0.837641,-0.0582 0.07474,-0.0287 0.1357,-0.019 0.135462,0.0215 -4.52e-4,0.077 -1.143197,0.88979 -1.25102,0.88979 -0.03408,0 -0.186506,0.14407 -0.338714,0.32014 -0.228432,0.26426 -0.265047,0.36093 -0.209746,0.55375 0.139452,0.48624 0.176913,1.33835 0.08405,1.9117 -0.346398,2.13858 -2.162189,3.91994 -4.695402,4.60637 -0.673827,0.18259 -2.644554,0.29732 -3.382683,0.19693 z m -4.013906,-1.93627 c -0.04922,-0.0612 -0.191043,-0.31361 -0.315164,-0.56088 -0.150477,-0.29978 -0.289849,-0.46243 -0.418268,-0.48814 -1.084771,-0.21716 -1.875728,-0.42207 -1.803862,-0.46732 0.07478,-0.0471 -0.667349,-1.18514 -1.151042,-1.76512 -0.13076,-0.15679 -0.123006,-0.16107 0.196231,-0.10815 0.182804,0.0303 0.863164,0.0973 1.511911,0.14891 3.437593,0.27341 7.273552,-0.66826 9.444937,-2.31858 0.556601,-0.42303 1.340146,-1.20616 1.507994,-1.50719 0.09188,-0.16478 0.108469,-0.16333 0.834331,0.0729 0.407322,0.13255 1.039203,0.29123 1.404179,0.35263 0.364977,0.0614 0.589496,0.11558 0.49893,0.12042 -0.09056,0.005 -0.138963,0.0345 -0.10755,0.0659 0.03141,0.0314 -0.03497,0.1184 -0.147518,0.1933 -0.738542,0.49151 -1.855023,1.25381 -4.348376,2.96893 -0.543392,0.37378 -1.355259,0.9304 -1.804149,1.23694 -0.448889,0.30653 -0.999969,0.68286 -1.224621,0.83628 -0.312751,0.2136 -0.373142,0.28818 -0.257736,0.31832 0.0829,0.0217 -0.330598,0.0439 -0.918879,0.0493 -0.595649,0.006 -1.033438,-0.0225 -0.987987,-0.0633 0.04489,-0.0403 1.937313,-1.33935 4.205386,-2.88681 2.268073,-1.54745 4.162429,-2.85395 4.209681,-2.90334 0.288042,-0.30106 -0.715478,0.36132 -5.104293,3.36911 -2.693175,1.84571 -4.950224,3.37639 -5.015664,3.4015 -0.06544,0.0251 -0.159252,-0.004 -0.208471,-0.0656 z m 25.807424,-1.00825 c -0.37033,-0.4099 -0.53895,-0.72271 -0.61868,-1.14772 l -0.0601,-0.32049 0.46084,0.0357 0.46084,0.0357 0.0542,0.71732 c 0.0298,0.39452 0.0823,0.78497 0.11659,0.86766 0.10679,0.2573 -0.0935,0.16618 -0.41364,-0.18817 z m -31.157911,-0.0542 c -0.777472,-0.20347 -1.84481,-0.77724 -2.397232,-1.28869 -0.620645,-0.5746 -1.004641,-1.15646 -1.220125,-1.84881 -0.339134,-1.08964 -0.147027,-1.32068 0.680276,-0.81812 0.899087,0.54617 2.250429,1.078 3.495508,1.37567 0.283509,0.0678 0.445534,0.12646 0.360055,0.1304 -0.08548,0.004 -0.131128,0.0465 -0.101443,0.0945 0.05873,0.095 0.08256,0.22831 0.168432,0.942 0.03116,0.25899 0.102468,0.50003 0.158456,0.53563 0.126775,0.0806 -0.06271,0.076 -0.37072,-0.009 -0.174924,-0.0483 -0.225443,-0.13041 -0.272243,-0.44247 -0.0316,-0.21075 -0.03882,-0.0352 -0.01602,0.39004 0.02279,0.42526 0.06092,0.84086 0.08473,0.92355 0.05072,0.17614 0.0452,0.17629 -0.56967,0.0154 z m 0.405296,-2.33382 c -0.01975,-0.13059 -0.03643,-0.0441 -0.03708,0.19212 -6.45e-4,0.23626 0.01551,0.3431 0.0359,0.23744 0.02039,-0.10567 0.02092,-0.29897 0.0012,-0.42956 z m 0.775992,-0.0796 c 0.05906,-0.0238 0.155716,-0.0238 0.21478,0 0.05906,0.0238 0.01074,0.0433 -0.10739,0.0433 -0.118129,0 -0.166454,-0.0195 -0.10739,-0.0433 z m -0.379444,-3.66163 c 0,-0.0731 0.09987,-0.17786 0.221939,-0.23272 0.185732,-0.0835 0.201557,-0.0812 0.097,0.0142 -0.06871,0.0627 -0.168586,0.1674 -0.221939,0.23272 -0.08143,0.0997 -0.097,0.0974 -0.097,-0.0142 z m 15.429089,-2.16643 c 0.548631,-0.6258 0.549491,-0.62653 0.378254,-0.32272 -0.08639,0.15327 -0.188342,0.27892 -0.226569,0.27922 -0.03823,3e-4 -0.0417,0.0489 -0.0077,0.10793 0.03399,0.0591 0.02948,0.078 -0.01003,0.0422 -0.03951,-0.0359 -0.170543,0.0221 -0.291187,0.12887 -0.120644,0.10675 -0.04989,7.8e-4 0.157241,-0.23547 z m 3.863721,-4.98162 c 0.0993,-0.18831 0.183263,-0.40094 0.186584,-0.47251 0.0042,-0.0913 0.0251,-0.0816 0.06991,0.0326 0.059,0.15035 0.0782,0.14455 0.251698,-0.076 0.103302,-0.13132 0.186068,-0.20457 0.183923,-0.16275 -0.0021,0.0418 -0.199371,0.28865 -0.438281,0.54853 -0.428524,0.46614 -0.431947,0.4679 -0.253836,0.13014 z m 0.781929,-0.84987 c 0,-0.0178 0.06765,-0.0855 0.150345,-0.15035 0.136261,-0.10686 0.1393,-0.10382 0.03244,0.0324 -0.112233,0.14311 -0.182782,0.18862 -0.182782,0.11791 z m -0.422777,-0.1895 c 0.0041,-0.10009 0.02448,-0.12044 0.05191,-0.0519 0.02482,0.062 0.02177,0.13612 -0.0068,0.16467 -0.02855,0.0285 -0.04885,-0.0222 -0.04512,-0.11276 z"
         id="path1" /></g></g></svg>
